<!-- icon666.com - MILLIONS vector ICONS FREE --><svg id="Capa_1" enable-background="new 0 0 512 512" viewBox="0 0 512 512" xmlns="http://www.w3.org/2000/svg"><path d="m361.819 94.045c1.269 0 2.556-.323 3.735-1.001l15.748-9.065c3.59-2.066 4.825-6.652 2.758-10.242-2.066-3.59-6.652-4.825-10.242-2.758l-15.748 9.065c-3.59 2.066-4.825 6.652-2.758 10.242 1.387 2.411 3.911 3.759 6.507 3.759z"></path><path d="m313.333 48.443c1.183.686 2.476 1.011 3.751 1.011 2.588 0 5.107-1.342 6.497-3.743l9.092-15.703c2.076-3.585.853-8.173-2.732-10.249-3.583-2.076-8.173-.853-10.249 2.732l-9.092 15.703c-2.074 3.586-.851 8.174 2.733 10.249z"></path><path d="m256 33.132c4.142 0 7.5-3.358 7.5-7.5v-18.132c0-4.142-3.358-7.5-7.5-7.5s-7.5 3.358-7.5 7.5v18.132c0 4.142 3.358 7.5 7.5 7.5z"></path><path d="m188.419 45.713c1.391 2.402 3.909 3.744 6.498 3.744 1.275 0 2.568-.326 3.751-1.011 3.584-2.075 4.808-6.664 2.733-10.249l-9.091-15.703c-2.075-3.585-6.664-4.809-10.249-2.733-3.584 2.075-4.808 6.664-2.733 10.249z"></path><path d="m130.7 83.98 15.746 9.067c1.179.679 2.466 1.002 3.736 1.002 2.595 0 5.118-1.349 6.506-3.759 2.067-3.589.833-8.175-2.757-10.242l-15.746-9.067c-3.588-2.066-8.174-.833-10.242 2.757-2.066 3.59-.832 8.176 2.757 10.242z"></path><path d="m393.273 226.615c-3.584-2.078-8.172-.856-10.25 2.728l-42.801 73.849c-6.976-2.467-14.393-3.757-22.01-3.757-17.62 0-34.185 6.874-46.644 19.355l-15.049 15.082-9.556-9.575c-2.925-2.932-7.674-2.937-10.606-.011s-2.937 7.674-.011 10.606l14.864 14.895c1.407 1.41 3.317 2.202 5.309 2.202s3.902-.792 5.309-2.202l20.357-20.401c9.624-9.642 22.418-14.952 36.027-14.952 13.607 0 26.401 5.31 36.024 14.952 9.622 9.639 14.92 22.455 14.92 36.086s-5.299 26.447-14.92 36.087l-1.459 1.462h-56.755c-2.874 0-5.494 1.642-6.748 4.227l-8.708 17.953-16.813-48.461c-1.02-2.94-3.75-4.945-6.861-5.038-3.103-.086-5.957 1.745-7.15 4.619l-15.63 37.614-8.318-27.049c-.924-3.007-3.627-5.117-6.769-5.285-3.153-.17-6.054 1.644-7.293 4.535l-7.235 16.885h-44.238l-1.458-1.461c-9.622-9.643-14.921-22.459-14.921-36.088s5.299-26.445 14.92-36.086c9.623-9.642 22.417-14.952 36.025-14.952 5.338 0 10.583.813 15.59 2.418 3.944 1.265 8.167-.908 9.431-4.853 1.264-3.944-.908-8.167-4.853-9.431-6.488-2.08-13.274-3.134-20.168-3.134-7.93 0-15.641 1.404-22.865 4.073l-92.205-159.09 22.056-12.698 9.737 16.774c2.08 3.583 6.671 4.8 10.251 2.721 3.583-2.08 4.801-6.669 2.721-10.251l-9.91-17.072c2.62-2.34 4.512-5.383 5.442-8.852 1.262-4.708.611-9.624-1.833-13.845-5.038-8.697-16.23-11.689-24.946-6.672l-1.224.705-10.067-17.388c-4.777-8.252-15.395-11.093-23.668-6.331l-17.035 9.808c-4.007 2.306-6.874 6.042-8.075 10.521-1.2 4.474-.587 9.138 1.725 13.133l19.671 33.972c2.107 3.64 5.353 6.218 9.029 7.565l94.932 163.795c-3.695 2.447-7.174 5.279-10.378 8.489-12.447 12.474-19.303 29.053-19.303 46.683 0 13.615 4.104 26.594 11.699 37.549h-5.237c-4.142 0-7.5 3.358-7.5 7.5s3.358 7.5 7.5 7.5h18.694l87.659 87.831c3.958 3.963 9.222 6.146 14.823 6.146 5.597 0 10.86-2.183 14.825-6.149l87.657-87.828h17.014c4.142 0 7.5-3.358 7.5-7.5s-3.358-7.5-7.5-7.5h-3.556c7.595-10.954 11.699-23.934 11.699-37.549 0-17.633-6.855-34.211-19.303-46.683-3.42-3.427-7.159-6.414-11.136-8.97l42.283-72.956c2.077-3.584.856-8.173-2.728-10.25zm-325.691-95.189-19.671-33.972c-.407-.702-.312-1.387-.219-1.733.093-.349.356-.995 1.07-1.405 0 0 0 0 .001-.001l17.035-9.807c.36-.208.76-.306 1.156-.306.816 0 1.621.417 2.047 1.153l13.816 23.863c2.073 3.579 6.649 4.804 10.232 2.742l7.707-4.437c1.57-.902 3.581-.369 4.483 1.189.583 1.006.453 1.963.324 2.445-.13.484-.5 1.383-1.518 1.97l-33.261 19.148c-1.103.633-2.569.246-3.202-.849zm193.148 363.825c-1.144 1.144-2.6 1.749-4.211 1.749-1.613 0-3.068-.604-4.207-1.744l-77.082-77.233h34.213c3 0 5.712-1.788 6.894-4.546l1.13-2.638 8.421 27.387c.929 3.021 3.653 5.136 6.811 5.287 3.164.159 6.071-1.694 7.284-4.613l16.054-38.636 16.292 46.959c.994 2.866 3.617 4.85 6.645 5.028.148.009.296.013.443.013 2.859 0 5.487-1.631 6.746-4.227l14.558-30.015h37.086z"></path><path d="m234.876 163.252v-11.375c0-4.142-3.358-7.5-7.5-7.5s-7.5 3.358-7.5 7.5v11.375c0 4.142 3.358 7.5 7.5 7.5s7.5-3.358 7.5-7.5z"></path><path d="m284.624 144.377c-4.142 0-7.5 3.358-7.5 7.5v11.375c0 4.142 3.358 7.5 7.5 7.5s7.5-3.358 7.5-7.5v-11.375c0-4.142-3.358-7.5-7.5-7.5z"></path><path d="m275.301 192.112h-38.602c-6.446 0-11.69 5.239-11.69 11.678 0 17.139 13.902 31.082 30.991 31.082s30.991-13.943 30.991-31.082c-.001-6.439-5.244-11.678-11.69-11.678zm-19.301 27.76c-7.685 0-14.121-5.481-15.647-12.76h31.295c-1.527 7.279-7.963 12.76-15.648 12.76z"></path><path d="m255.207 182.798h7.319c4.142 0 7.5-3.358 7.5-7.5s-3.358-7.5-7.5-7.5h-2.819v-9.121c0-4.142-3.358-7.5-7.5-7.5s-7.5 3.358-7.5 7.5v13.621c0 5.79 4.711 10.5 10.5 10.5z"></path><path d="m478.797 91.838c-1.201-4.479-4.068-8.216-8.076-10.523l-17.036-9.808c-8.271-4.762-18.888-1.92-23.667 6.332l-10.069 17.389-1.225-.705c-8.718-5.018-19.909-2.023-24.944 6.672-2.444 4.219-3.095 9.135-1.834 13.843.953 3.556 2.911 6.668 5.632 9.03l-80.028 137.866h-34.931v-3.873c23.558-3.385 41.73-23.777 41.73-48.362v-1.697c12.192-.197 22.051-10.205 22.051-22.487v-9.75c0-12.282-9.859-22.29-22.051-22.487l.001-43.424c0-21.242-17.208-38.524-38.361-38.524h-11.013c-7.037-8.785-17.82-14.422-29.896-14.422h-19.069c-21.152 0-38.36 17.282-38.36 38.523v57.847c-12.192.197-22.051 10.205-22.051 22.487v9.75c0 12.282 9.859 22.29 22.051 22.487v1.697c0 24.585 18.171 44.978 41.729 48.362v3.873h-34.638l-52.622-90.652c-2.079-3.583-6.67-4.799-10.251-2.721-3.583 2.08-4.801 6.669-2.721 10.251l54.79 94.387c1.342 2.312 3.813 3.735 6.486 3.735h38.957v1.471c0 12.709 10.302 23.049 22.964 23.049h7.312c12.662 0 22.963-10.34 22.963-23.049v-1.471h39.25c2.673 0 5.145-1.423 6.486-3.735l82.052-141.352 21.837 12.571-31.618 54.554c-2.077 3.583-.856 8.172 2.728 10.25 3.583 2.077 8.173.856 10.25-2.728l34.767-59.987c3.676-1.347 6.922-3.925 9.029-7.564l19.671-33.974c2.311-3.993 2.924-8.656 1.725-13.131zm-154.448 76.449c3.919.194 7.051 3.469 7.051 7.478v9.75c0 4.009-3.132 7.283-7.051 7.477zm-136.697 24.706c-3.919-.194-7.051-3.468-7.051-7.477v-9.75c0-4.009 3.132-7.284 7.051-7.478zm98.337-106.663c12.881 0 23.361 10.553 23.361 23.524v7.837c-6.858-5.851-15.726-9.77-25.907-11.086v-11.174c0-3.135-.384-6.181-1.091-9.101zm-83.337 9.101c0-12.971 10.479-23.523 23.36-23.523h19.069c12.882 0 23.362 10.553 23.362 23.523v10.682h-32.145c-13.432 0-25.102 4.287-33.646 11.576zm64.967 182.974c0 4.438-3.572 8.049-7.963 8.049h-7.312c-4.391 0-7.964-3.611-7.964-8.049v-19.841h23.239zm8.082-34.841h-39.404c-18.552 0-33.646-15.192-33.646-33.865v-58.776c0-17.551 13.836-29.81 33.646-29.81h39.404c19.811 0 33.647 12.258 33.647 29.81v58.776c.001 18.673-15.093 33.865-33.647 33.865zm188.388-146.111-19.671 33.974c-.634 1.094-2.1 1.483-3.204.848l-33.261-19.148c-1.019-.586-1.388-1.486-1.518-1.97-.129-.481-.258-1.438.325-2.444.604-1.044 1.707-1.628 2.84-1.628.558 0 1.123.142 1.641.439l7.708 4.437c3.583 2.063 8.16.837 10.232-2.742l13.817-23.863c.634-1.094 2.102-1.483 3.202-.848l17.036 9.808h.001c.713.411.977 1.058 1.07 1.407.094.344.188 1.028-.218 1.73z"></path></svg>