<!-- icon666.com - MILLIONS vector ICONS FREE --><svg version="1.1" id="Capa_1" xmlns="http://www.w3.org/2000/svg" xmlns:xlink="http://www.w3.org/1999/xlink" x="0px" y="0px" viewBox="0 0 512 512" style="enable-background:new 0 0 512 512;" xml:space="preserve"><path style="fill:#FBCCAD;" d="M316.746,234.305v46.627c0,13.043,9.641,24.073,22.563,25.808l62.386,8.322 c25.878,3.436,45.221,25.505,45.221,51.608V512H117.153V366.67c0-26.095,19.317-48.163,45.186-51.608l62.386-8.322 c12.939-1.727,22.597-12.757,22.597-25.808v-46.627H316.746z"></path><path style="fill:#FFC096;" d="M316.746,269.885v-35.58h-69.424v35.58c10.709,5.545,22.658,8.235,34.712,7.81 C294.088,278.12,306.037,275.43,316.746,269.885z"></path><path style="fill:#F8A049;" d="M429.559,269.017L429.559,269.017c-38.339,0-69.424-31.084-69.424-69.424V78.102l0,0l0,0 c38.339,0,69.424,31.084,69.424,69.424V269.017L429.559,269.017z"></path><path style="fill:#F9BC61;" d="M282.034,0c-52.719,0-95.458,42.739-95.458,95.458v43.39h190.915v-43.39 C377.492,42.739,334.753,0,282.034,0z"></path><g><path style="fill:#F8AC4F;" d="M350.147,28.637c-31.206,56.841-119.313,75.62-163.571,81.573v28.637h190.915v-43.39 C377.518,70.456,367.694,46.453,350.147,28.637z"></path><path style="fill:#F8AC4F;" d="M256,95.458V3.688c-5.996,1.692-11.811,3.975-17.356,6.812v84.957H256z"></path></g><g><path style="fill:#FAB98F;" d="M195.254,121.492h8.678l0,0v52.068l0,0h-8.678c-14.379,0-26.034-11.655-26.034-26.034l0,0 C169.22,133.146,180.875,121.492,195.254,121.492z"></path><path style="fill:#FAB98F;" d="M368.814,173.559h-8.678l0,0v-52.068l0,0h8.678c14.379,0,26.034,11.655,26.034,26.034l0,0 C394.847,161.905,383.193,173.559,368.814,173.559z"></path></g><path style="fill:#FBCCAD;" d="M360.136,121.492L360.136,121.492c-5.103-20.402-23.431-34.712-44.457-34.712h-67.289 c-21.027,0-39.355,14.31-44.457,34.712l0,0v60.746c0,43.138,34.964,78.102,78.102,78.102l0,0c43.138,0,78.102-34.964,78.102-78.102 V121.492z"></path><g><circle style="fill:#4398D1;" cx="247.322" cy="138.847" r="17.356"></circle><circle style="fill:#4398D1;" cx="316.746" cy="138.847" r="17.356"></circle></g><path style="fill:#E6E6E6;" d="M256,190.915L256,190.915c0,14.379,11.655,26.034,26.034,26.034l0,0 c14.379,0,26.034-11.655,26.034-26.034H256z"></path><path style="fill:#A2DAEB;" d="M203.932,182.237c0,43.138,34.964,78.102,78.102,78.102s78.102-34.964,78.102-78.102v-8.678H203.932 V182.237z"></path><path style="fill:#86C8DC;" d="M324.617,173.559c-18.883,50.376-61.787,64.868-92.325,68.886 c33.254,27.474,82.484,22.78,109.959-10.474c11.559-13.989,17.885-31.579,17.885-49.733v-8.678H324.617z"></path><path style="fill:#4398D1;" d="M391.376,395.663l2.794-81.573l-39.224-5.207l-20.844,55.591H229.966l-18.649-55.947l-41.446,5.528 l2.786,81.573c-17.833,28.073-15.855,64.373,4.929,90.338V512h208.887v-26.034C407.222,460.002,409.192,423.719,391.376,395.663z"></path><path style="fill:#E6E6E6;" d="M401.72,315.062l-62.412-8.322c-1.996-0.286-3.948-0.807-5.823-1.553l-51.452,128.712 l-51.495-128.712c-1.874,0.746-3.818,1.267-5.814,1.553l-62.386,8.322c-25.869,3.445-45.186,25.513-45.186,51.608V512h329.763 V366.67C446.915,340.575,427.589,318.507,401.72,315.062z"></path><path style="fill:#DEDEDE;" d="M430.818,329.311c-10.379,24.533-24.246,47.442-41.177,68.009c13.06,28.229,0.764,61.7-27.466,74.761 c-7.437,3.445-15.534,5.215-23.734,5.207h-45.247c-24.177,13.815-49.551,25.435-75.811,34.712h229.532V366.67 C446.872,352.542,441.058,339.048,430.818,329.311z"></path><g><rect x="308.059" y="451.254" style="fill:#CFCFCF;" width="17.356" height="17.356"></rect><path style="fill:#CFCFCF;" d="M369.907,310.819l-17.868-2.386l7.298,51.079l-29.123,14.553c-3.862,1.935-5.71,6.413-4.339,10.509 l6.153,18.458l-45.429,19.473l-4.565,1.953l-4.556-1.953l-45.429-19.473l6.153-18.458c1.458-4.356-0.738-9.095-5.007-10.804 l-36.118-14.44l14.527-50.836l-18.77,2.499l-14.596,51.096c-1.206,4.27,0.998,8.765,5.12,10.414l35.788,14.31l-6.075,18.276 c-1.423,4.278,0.66,8.938,4.808,10.717l55.478,23.812V512h17.356v-72.383l55.487-23.778c4.148-1.779,6.24-6.439,4.816-10.717 l-6.292-18.901l27.969-13.937c3.341-1.675,5.241-5.302,4.703-8.999L369.907,310.819z"></path><path style="fill:#CFCFCF;" d="M186.264,512h-17.356v-23.083c-21.348-28.75-22.762-67.679-3.575-97.905l14.648,9.303 c-15.82,24.932-14.058,57.162,4.382,80.228c1.232,1.536,1.9,3.454,1.9,5.424L186.264,512z"></path><path style="fill:#CFCFCF;" d="M395.151,512h-17.356v-26.034c0-1.97,0.668-3.888,1.901-5.424 c18.441-23.066,20.202-55.296,4.382-80.228l14.648-9.303c19.187,30.234,17.764,69.155-3.575,97.905L395.151,512z"></path></g><path style="fill:#4398D1;" d="M108.475,286.373H91.119V185.83l-10.335-10.335c-9.364-9.355-9.364-24.533-0.009-33.896 c2.629-2.638,5.849-4.617,9.381-5.797l15.62-5.207l5.484,16.488l-15.577,5.207c-3.471,1.145-5.346,4.886-4.2,8.357 c0.321,0.981,0.868,1.866,1.597,2.595l12.878,12.878c1.614,1.623,2.517,3.827,2.517,6.118V286.373z"></path><path style="fill:#A2DAEB;" d="M134.508,512l-13.885-95.458h-1.822c8.912,0,16.375-6.751,17.269-15.62l5.207-52.068 c0.955-9.537-5.996-18.05-15.534-19.005c-0.573-0.061-1.154-0.087-1.736-0.087H82.441c-9.589,0-17.356,7.767-17.356,17.356V512"></path><polygon style="fill:#4398D1;" points="82.441,329.763 117.153,329.763 117.153,269.017 99.797,251.661 82.441,269.017 "></polygon><path style="fill:#86C8DC;" d="M91.119,425.22h30.763l-1.258-8.678c5.441-0.842,10.24-4.009,13.147-8.678H91.119V425.22z"></path></svg>