<!-- icon666.com - MILLIONS vector ICONS FREE --><svg id="Layer_1" viewBox="0 0 512 512" xmlns="http://www.w3.org/2000/svg"><path d="m193.526 105.149c1.604-4.152 6.282-6.212 10.428-4.605 33.563 13.002 70.529 13 104.093 0 4.14-1.607 8.823.453 10.428 4.605 1.61 4.15-.456 8.818-4.605 10.425-18.656 7.23-38.266 10.846-57.871 10.846s-39.208-3.614-57.868-10.846c-4.15-1.607-6.216-6.277-4.605-10.425zm256.734 175.38c48.632 67.481 63.38 105.195 47.82 122.284-3.887 4.275-9.989 7.991-21.525 7.991-11.883 0-29.546-3.941-56.505-15.246-11.849 42.933-38.252 78.782-79.087 107.128-5.684 3.888-12.941 4.289-18.989 1.08-6.046-3.21-9.778-9.443-9.745-16.271v-108.21c0-5.928-.956-11.674-2.736-17.198-16.909 11.412-35.985 19.145-52.116 21.942-.455.079-.917.119-1.379.119-.458 0-.921-.04-1.376-.119-16.127-2.797-35.201-10.526-52.105-21.935-1.778 5.523-2.747 11.265-2.747 17.19v108.252c.04 6.8-3.69 13.044-9.742 16.249-2.707 1.436-5.65 2.146-8.595 2.146-3.624 0-7.236-1.082-10.357-3.219-40.858-28.365-67.268-64.219-79.124-107.157-26.963 11.305-44.623 15.248-56.504 15.248-11.549 0-17.639-3.714-21.53-7.991-15.555-17.089-.811-54.803 47.825-122.284 2.604-3.609 7.638-4.426 11.25-1.827 3.613 2.603 4.428 7.642 1.83 11.254-59.658 82.771-51.268 99.494-48.98 102.006 2.058 2.27 12.976 8.927 62.436-12.315-4.839-25.941-4.757-54.26.296-84.88 1.558-9.447.562-11.174-4.22-19.472l-1.423-2.487c-24.773-43.497-32.756-92.858-23.591-144.009-35.216-41.609-62.617-84.816-49.578-107.678 11.41-20.004 45.909-20.063 108.572-.188 4.243 1.348 6.591 5.878 5.248 10.122-1.349 4.245-5.88 6.585-10.123 5.248-73.692-23.377-87.28-11.417-89.691-7.195-6.828 11.971 8.815 41.584 39.977 79.933.397-1.52.747-3.033 1.177-4.552.061-.22.136-.439.216-.652 12.016-31.837 29.693-51.842 52.557-59.46 26.521-8.835 59.85-.733 99.088 24.07 24.97 9.467 53.47 9.467 78.439 0 39.238-24.81 72.57-32.907 99.093-24.07 22.854 7.62 40.538 27.623 52.551 59.46.078.212.151.432.217.652.427 1.521.779 3.033 1.177 4.552 31.162-38.346 46.803-67.96 39.972-79.933-2.412-4.222-15.995-16.187-89.689 7.195-4.253 1.34-8.778-1.003-10.125-5.248-1.344-4.244 1.005-8.773 5.249-10.122 62.659-19.878 97.161-19.822 108.572.19 13.039 22.864-14.358 66.067-49.578 107.679 9.167 51.151 1.184 100.511-23.588 144.009l-1.423 2.48c-4.781 8.301-5.777 10.029-4.22 19.477 5.048 30.623 5.129 58.94.299 84.88 49.44 21.238 60.362 14.587 62.434 12.315 2.284-2.512 10.67-19.237-48.982-102.006-2.603-3.612-1.783-8.651 1.825-11.254 3.607-2.599 8.65-1.783 11.253 1.827zm-11.55-135.751c-33.7 37.502-70.448 71.271-85.009 84.331v64.374c0 15.379-5.981 29.553-15.37 41.942 28.562 16.539 51.686 28.663 70.341 37.433 3.716-22.986 3.364-48.078-1.152-75.468-2.385-14.485.316-20.003 6.159-30.147l1.381-2.408c20.739-36.41 28.677-77.37 23.65-120.057zm-362.058-20.376c22.014 25.388 49.792 53.757 81.646 82.938v-21.373c0-2.457 1.12-4.779 3.046-6.308 1.924-1.531 4.438-2.105 6.832-1.545 7.68 1.777 15.584 2.68 23.497 2.68 21.546 0 42.708-6.75 59.592-19.005 2.825-2.049 6.646-2.049 9.471 0 16.883 12.256 38.045 19.005 59.587 19.005 7.913 0 15.818-.903 23.501-2.68 2.391-.551 4.908.017 6.832 1.545 1.926 1.529 3.045 3.851 3.045 6.308v21.373c31.859-29.182 59.637-57.55 81.647-82.938-1.07-5.051-2.259-10.115-3.69-15.197-10.207-26.884-24.486-43.549-42.446-49.534-21.836-7.283-50.783.391-86.027 22.815-.453.283-.924.523-1.415.715-29.091 11.271-62.453 11.271-91.538 0-.491-.191-.966-.432-1.413-.715-35.245-22.42-64.188-30.097-86.034-22.815-17.958 5.981-32.235 22.65-42.444 49.534-1.426 5.082-2.615 10.146-3.689 15.197zm26.675 248.456c18.655-8.77 41.781-20.892 70.343-37.433-9.391-12.388-15.372-26.563-15.372-41.942v-64.374c-14.478-12.982-51.265-46.777-85.009-84.335-5.026 42.691 2.917 83.649 23.65 120.058l1.387 2.417c5.842 10.141 8.544 15.659 6.153 30.142-4.514 27.389-4.868 52.481-1.152 75.467zm85.832-21.006c-1.545-1.352-3.066-2.721-4.535-4.137-31.427 18.296-57.008 31.7-77.865 41.31 10.459 40.298 34.777 73.557 73.471 100.418.64.439 1.516.49 2.242.1.734-.387 1.18-1.137 1.176-1.958v-108.3c0-9.544 1.928-18.732 5.511-27.433zm148.421-58.369v-97.81c-28.384 4.118-58.103-2.347-81.581-17.586-18.752 12.176-41.373 18.827-64.322 18.827-.004 0 0 0-.004 0-5.778 0-11.549-.416-17.254-1.241v97.81c0 36.298 47.817 67.932 81.58 74.41 33.766-6.48 81.581-38.112 81.581-74.41zm67.663 95.542c-20.855-9.609-46.437-23.014-77.869-41.31-1.468 1.414-2.984 2.785-4.534 4.132 3.588 8.704 5.511 17.894 5.511 27.438v108.252c-.005 1.131.639 1.703 1.181 1.992.542.285 1.377.499 2.28-.117 38.673-26.84 62.977-60.094 73.431-100.387zm-92.883-91.937h-31.473v31.471c0 4.451-3.607 8.058-8.06 8.058h-33.655c-4.453 0-8.061-3.606-8.061-8.058v-31.471h-31.472c-4.453 0-8.061-3.608-8.061-8.062v-33.656c0-4.454 3.608-8.061 8.061-8.061h31.472v-31.471c0-4.452 3.608-8.06 8.061-8.06h33.655c4.453 0 8.06 3.607 8.06 8.06v31.471h31.473c4.454 0 8.061 3.607 8.061 8.061v33.656c-.001 4.454-3.607 8.062-8.061 8.062zm-8.062-33.655h-31.472c-4.453 0-8.061-3.609-8.061-8.062v-31.47h-17.531v31.47c0 4.453-3.609 8.062-8.063 8.062h-31.471v17.532h31.472c4.454 0 8.063 3.607 8.063 8.062v31.471h17.531v-31.471c0-4.454 3.608-8.062 8.061-8.062h31.472v-17.532z"></path></svg>