<?xml version="1.0" ?><!DOCTYPE svg  PUBLIC '-//W3C//DTD SVG 1.1//EN'  'http://www.w3.org/Graphics/SVG/1.1/DTD/svg11.dtd'><svg xmlns="http://www.w3.org/2000/svg" xmlns:xlink="http://www.w3.org/1999/xlink" version="1.1" id="Layer_1" width="512px" height="512px" viewBox="0 0 512 512" enable-background="new 0 0 512 512" xml:space="preserve"><g><path fill="#33A851" d="M486,96.271v227.442c0,37.345-30.555,67.9-67.9,67.9H215.939L93.9,483.629v-92.016   c-37.345,0-67.9-30.555-67.9-67.9V96.271c0-37.345,30.555-67.9,67.9-67.9h324.2C455.445,28.371,486,58.926,486,96.271z"/><path fill="#F0F0F1" d="M359.873,116.881c28.681,28.681,28.681,75.186-0.006,103.873L256,324.62L152.128,220.747   c-28.681-28.681-28.681-75.186,0-103.867c28.681-28.681,75.186-28.681,103.867,0C284.681,88.194,331.186,88.194,359.873,116.881z"/></g></svg>