<!-- icon666.com - MILLIONS vector ICONS FREE --><svg id="Слой_1" viewBox="0 0 512 512" xmlns="http://www.w3.org/2000/svg" data-name="Слой 1"><path d="m321.44 446.8-65.77 56.9-65.78-56.9v-264.1h131.55z" fill="#96b9bc"></path><g fill="#5e1235"><path d="m255.67 512a8.28 8.28 0 0 1 -5.43-2l-65.77-56.9a8.3 8.3 0 0 1 -2.87-6.27v-264.13a8.3 8.3 0 0 1 8.3-8.3h131.54a8.3 8.3 0 0 1 8.3 8.3v264.1a8.29 8.29 0 0 1 -2.87 6.27l-65.78 56.93a8.28 8.28 0 0 1 -5.42 2zm-57.48-69 57.48 49.73 57.47-49.73v-252h-115z"></path><path d="m338.85 384.3h-165.7a8.3 8.3 0 0 1 0-16.59h165.7a8.3 8.3 0 0 1 0 16.59z"></path><path d="m338.85 339.78h-165.7a8.3 8.3 0 0 1 0-16.59h165.7a8.3 8.3 0 0 1 0 16.59z"></path><path d="m338.85 295.26h-165.7a8.3 8.3 0 0 1 0-16.59h165.7a8.3 8.3 0 0 1 0 16.59z"></path><path d="m338.85 250.74h-165.7a8.3 8.3 0 0 1 0-16.59h165.7a8.3 8.3 0 0 1 0 16.59z"></path></g><path d="m389.44 75c0-68.77-62.05-67.46-74.8-66.47a19.3 19.3 0 0 0 -4.06.76l-7 2.11a165 165 0 0 1 -95.18 0 70.22 70.22 0 0 0 -26.53-2.73c-22.76 2-59.32 13.53-59.32 66.33 0 56.71 22.08 71.46 32.88 111.41h201.13c10.8-39.94 32.88-54.7 32.88-111.41z" fill="#fff"></path><path d="m356.56 194.71h-201.12a8.3 8.3 0 0 1 -8-6.13c-3.65-13.5-8.58-23.82-13.81-34.73-9.52-19.85-19.37-40.46-19.37-78.85 0-43.59 24.38-70.78 66.88-74.59a78.2 78.2 0 0 1 29.66 3.06 156.18 156.18 0 0 0 90.4 0l7-2.11a27.64 27.64 0 0 1 5.8-1.09c9.16-.72 40.73-1.48 62.52 18.68 14.08 13.05 21.22 31.88 21.22 56.05 0 38.38-9.84 59-19.36 78.84-5.22 10.92-10.16 21.23-13.81 34.73a8.3 8.3 0 0 1 -8.01 6.14zm-194.9-16.59h188.68c3.8-12.07 8.5-21.89 13.07-31.43 9.12-19.06 17.74-37.07 17.74-71.68 0-19.36-5.35-34.12-15.89-43.88-16.85-15.59-42.5-14.9-50-14.32a11 11 0 0 0 -2.32.44l-7 2.11a172.75 172.75 0 0 1 -100 0 61.63 61.63 0 0 0 -23.39-2.41c-23.55 2.11-51.7 13.9-51.7 58.05 0 34.62 8.62 52.62 17.74 71.68 4.57 9.55 9.27 19.38 13.07 31.44z" fill="#5e1235"></path><path d="m255.65 445.05-18.5-17.22" fill="#5e1235"></path><path d="m255.65 453.34a8.27 8.27 0 0 1 -5.65-2.22l-18.5-17.22a8.3 8.3 0 1 1 11.3-12.15l18.5 17.25a8.3 8.3 0 0 1 -5.65 14.37z" fill="#fff"></path><path d="m200 49.34s30.46 10.28 56.55 10.28 56.55-10.28 56.55-10.28" fill="#fff"></path><path d="m256.55 67.91c-27.14 0-57.91-10.28-59.2-10.72a8.3 8.3 0 0 1 5.3-15.72c.29.1 29.52 9.85 53.9 9.85s53.6-9.75 53.9-9.85a8.3 8.3 0 0 1 5.31 15.72c-1.3.44-32.07 10.72-59.21 10.72z" fill="#5e1235"></path></svg>