<!-- icon666.com - MILLIONS vector ICONS FREE --><svg viewBox="-32 0 512 512.001" xmlns="http://www.w3.org/2000/svg"><path d="m391.929688 152.714844h-38.359376c-8.601562 0-15.578124 6.976562-15.578124 15.578125v52.3125h69.515624v-52.3125c0-8.601563-6.976562-15.578125-15.578124-15.578125zm0 0" fill="#fcf2d0"></path><path d="m416.929688 487.953125h-88.363282c-13.835937 0-24.894531-11.503906-24.347656-25.332031l8.648438-218.609375c.519531-13.074219 11.269531-23.40625 24.351562-23.40625h71.058594c13.082031 0 23.832031 10.332031 24.351562 23.40625l8.652344 218.609375c.546875 13.828125-10.515625 25.332031-24.351562 25.332031zm0 0" fill="#8eafe2"></path><path d="m342.367188 220.605469h-5.144532c-13.085937 0-23.835937 10.332031-24.351562 23.40625l-8.652344 218.609375c-.546875 13.824218 10.511719 25.332031 24.351562 25.332031h59.683594c-41.691406-47.210937-54.613281-201.203125-45.886718-267.347656zm0 0" fill="#6a96d7"></path><path d="m304.21875 462.621094c-.546875 13.824218 10.511719 25.332031 24.351562 25.332031h88.359376c13.839843 0 24.898437-11.503906 24.351562-25.332031l-.4375-11.070313h-136.1875zm0 0" fill="#fcf2d0"></path><path d="m304.65625 451.550781-.4375 11.070313c-.546875 13.828125 10.511719 25.335937 24.351562 25.335937h59.683594c-7.796875-8.828125-14.585937-21.382812-20.414062-36.402343h-63.183594zm0 0" fill="#f6e3a3"></path><path d="m139.078125 504.5c-7.667969 0-14.546875-5.359375-16.175781-13.160156-7.546875-36.113282 1.792968-96.664063 3.824218-106.304688 1.886719-8.941406 10.660157-14.65625 19.597657-12.773437 8.941406 1.882812 14.660156 10.660156 12.773437 19.597656-2.371094 11.242187-9.601562 65.015625-3.8125 92.710937 1.867188 8.945313-3.867187 17.707032-12.808594 19.578126-1.140624.238281-2.277343.351562-3.398437.351562zm0 0" fill="#efd176"></path><path d="m239.382812 504.5c-1.121093 0-2.257812-.113281-3.398437-.351562-8.945313-1.871094-14.679687-10.632813-12.808594-19.578126 5.785157-27.699218-1.445312-81.46875-3.816406-92.710937-1.882813-8.9375 3.835937-17.714844 12.773437-19.597656 8.933594-1.886719 17.714844 3.832031 19.597657 12.769531 2.035156 9.640625 11.371093 70.1875 3.828125 106.308594-1.628906 7.800781-8.511719 13.160156-16.175782 13.160156zm0 0" fill="#efd176"></path><path d="m143.753906 74.148438c23.273438 23.273437 27.261719 59.503906 27.660156 78.101562.144532 6.757812-5.382812 12.28125-12.136718 12.136719-18.597656-.398438-54.828125-4.386719-78.101563-27.660157-23.277343-23.273437-27.265625-59.507812-27.660156-78.101562-.144531-6.757812 5.378906-12.28125 12.136719-12.136719 18.59375.398438 54.828125 4.382813 78.101562 27.660157zm0 0" fill="#8ee2cf"></path><path d="m126.421875 126.894531c-1.921875 0-3.839844-.734375-5.304687-2.199219l-27.914063-27.910156c-2.929687-2.929687-2.929687-7.679687 0-10.609375 2.929687-2.929687 7.679687-2.929687 10.605469 0l27.914062 27.914063c2.929688 2.929687 2.929688 7.675781 0 10.605468-1.464844 1.464844-3.382812 2.199219-5.300781 2.199219zm0 0" fill="#6fce91"></path><path d="m234.703125 74.148438c-23.269531 23.273437-27.257813 59.503906-27.65625 78.101562-.144531 6.757812 5.378906 12.28125 12.136719 12.136719 18.59375-.398438 54.828125-4.386719 78.101562-27.660157 23.273438-23.273437 27.261719-59.503906 27.660156-78.101562.144532-6.757812-5.382812-12.28125-12.136718-12.136719-18.597656.398438-54.832032 4.382813-78.105469 27.660157zm0 0" fill="#8ee2cf"></path><path d="m252.039062 126.894531c-1.917968 0-3.839843-.734375-5.304687-2.199219-2.929687-2.929687-2.929687-7.675781 0-10.605468l27.914063-27.910156c2.929687-2.929688 7.675781-2.929688 10.605468 0 2.929688 2.925781 2.929688 7.675781 0 10.605468l-27.910156 27.910156c-1.464844 1.464844-3.386719 2.199219-5.304688 2.199219zm0 0" fill="#6fce91"></path><path d="m233.480469 85.945312c0 32.914063-22.800781 61.351563-35.667969 74.78125-4.675781 4.882813-12.492188 4.882813-17.164062 0-12.871094-13.429687-35.671876-41.867187-35.671876-74.78125 0-32.914062 22.800782-61.355468 35.671876-74.785156 4.675781-4.878906 12.488281-4.878906 17.164062 0 12.867188 13.429688 35.667969 41.871094 35.667969 74.785156zm0 0" fill="#8ee2cf"></path><path d="m189.230469 113.179688c-4.140625 0-7.5-3.355469-7.5-7.5v-39.472657c0-4.140625 3.359375-7.5 7.5-7.5s7.5 3.359375 7.5 7.5v39.472657c0 4.144531-3.359375 7.5-7.5 7.5zm0 0" fill="#6fce91"></path><path d="m189.230469 133.828125c68.273437 0 117.082031 53.773437 123.621093 135.203125 6.804688 84.703125-25.054687 147.886719-123.621093 147.886719-98.570313 0-130.429688-63.183594-123.625-147.886719 6.542969-81.429688 55.347656-135.203125 123.625-135.203125zm0 0" fill="#f7ef87"></path><g fill="#efd176"><path d="m148.414062 140.925781c-46.359374 17.113281-77.660156 64.046875-82.808593 128.105469-6.785157 84.46875 24.886719 147.527344 122.8125 147.878906-118.859375-72.722656-86.988281-203.925781-40.003907-275.984375zm0 0"></path><path d="m201.234375 238.238281c-1.921875 0-3.839844-.730469-5.304687-2.195312l-6.699219-6.699219-6.699219 6.699219c-2.929688 2.929687-7.679688 2.929687-10.609375 0-2.929687-2.929688-2.929687-7.679688 0-10.605469l12.003906-12.003906c2.929688-2.929688 7.679688-2.929688 10.605469 0l12.003906 12.003906c2.929688 2.925781 2.929688 7.675781 0 10.605469-1.464844 1.464843-3.382812 2.195312-5.300781 2.195312zm0 0"></path><path d="m269.859375 238.238281c-1.917969 0-3.839844-.730469-5.304687-2.195312l-6.699219-6.699219-6.699219 6.699219c-2.929688 2.929687-7.679688 2.929687-10.605469 0-2.929687-2.929688-2.929687-7.675781 0-10.605469l12-12.003906c1.410157-1.40625 3.316407-2.199219 5.304688-2.199219s3.898437.792969 5.304687 2.199219l12.003906 12.003906c2.929688 2.925781 2.929688 7.675781 0 10.605469-1.464843 1.464843-3.386718 2.195312-5.304687 2.195312zm0 0"></path><path d="m132.605469 238.238281c-1.917969 0-3.835938-.730469-5.300781-2.195312l-6.699219-6.699219-6.703125 6.699219c-2.925782 2.929687-7.675782 2.929687-10.605469 0-2.929687-2.929688-2.929687-7.679688 0-10.605469l12.003906-12.003906c2.929688-2.929688 7.679688-2.929688 10.605469 0l12.003906 12.003906c2.929688 2.925781 2.929688 7.675781 0 10.605469-1.464844 1.464843-3.382812 2.195312-5.304687 2.195312zm0 0"></path><path d="m235.546875 378.925781c-1.921875 0-3.839844-.730469-5.304687-2.195312l-6.699219-6.699219-6.699219 6.699219c-2.929688 2.929687-7.679688 2.929687-10.605469 0-2.929687-2.929688-2.929687-7.679688 0-10.609375l12-12c1.40625-1.40625 3.316407-2.199219 5.304688-2.199219s3.898437.792969 5.304687 2.199219l12.003906 12c2.925782 2.929687 2.925782 7.679687-.003906 10.609375-1.464844 1.464843-3.382812 2.195312-5.300781 2.195312zm0 0"></path><path d="m166.921875 378.925781c-1.921875 0-3.839844-.730469-5.304687-2.195312l-6.699219-6.699219-6.699219 6.699219c-2.929688 2.929687-7.679688 2.929687-10.609375 0-2.929687-2.929688-2.929687-7.679688 0-10.609375l12.003906-12c2.929688-2.929688 7.679688-2.929688 10.605469 0l12.003906 12c2.929688 2.929687 2.929688 7.679687 0 10.609375-1.464844 1.464843-3.382812 2.195312-5.300781 2.195312zm0 0"></path></g><path d="m139.027344 315.570312c0-12.910156-13.140625-23.375-29.355469-23.375-16.210937 0-29.355469 10.464844-29.355469 23.375 0 12.910157 13.144532 23.375 29.355469 23.375 16.214844 0 29.355469-10.464843 29.355469-23.375zm0 0" fill="#eda1ab"></path><path d="m298.140625 315.570312c0-12.910156-13.140625-23.375-29.355469-23.375-16.210937 0-29.355468 10.464844-29.355468 23.375 0 12.910157 13.144531 23.375 29.355468 23.375 16.214844 0 29.355469-10.464843 29.355469-23.375zm0 0" fill="#eda1ab"></path><path d="m212.898438 297.609375c0-14.628906-10.597657-16-23.667969-16-13.070313 0-23.667969 1.371094-23.667969 16 0 14.625 10.597656 26.484375 23.667969 26.484375 13.070312 0 23.667969-11.859375 23.667969-26.484375zm0 0" fill="#4e5660"></path><path d="m88.429688 304.511719c-.019532 0-.035157 0-.050782 0-2.898437.007812-5.707031-1.027344-7.78125-3.054688-4.675781-4.574219-11.074218-7.394531-18.136718-7.394531-7.058594 0-13.457032 2.820312-18.136719 7.394531-2.070313 2.027344-4.878907 3.0625-7.777344 3.054688-.019531 0-.035156 0-.050781 0-17.035156 0-30.640625 14.691406-28.839844 32.09375 1.359375 13.121093 11.679688 23.804687 24.742188 25.621093 4.78125.667969 9.367187.140626 13.53125-1.289062 4.082031 4.511719 9.964843 7.367188 16.53125 7.367188 6.566406 0 12.453124-2.855469 16.535156-7.367188 4.164062 1.429688 8.746094 1.957031 13.53125 1.289062 13.0625-1.820312 23.382812-12.503906 24.742187-25.621093 1.800781-17.402344-11.804687-32.09375-28.839843-32.09375zm0 0" fill="#a3defe"></path><path d="m45.929688 360.9375c4.082031 4.515625 9.964843 7.367188 16.535156 7.367188 5.984375 0 11.402344-2.375 15.40625-6.214844-20.65625-14.273438-32.109375-43.925782-22.238282-67.109375-4.320312 1.179687-8.195312 3.4375-11.308593 6.480469-2.070313 2.023437-4.878907 3.058593-7.777344 3.054687-.015625 0-.03125 0-.050781 0-17.035156 0-30.640625 14.6875-28.839844 32.09375 1.359375 13.117187 11.679688 23.800781 24.742188 25.621094 4.78125.664062 9.367187.136719 13.53125-1.292969zm0 0" fill="#7acefa"></path><path d="m108.996094 350.933594-4.640625-4.640625c-4.664063-4.664063-12.226563-4.664063-16.890625 0l-5.382813 5.382812c-1.601562 1.601563-4.191406 1.601563-5.789062 0l-5.386719-5.382812c-4.664062-4.664063-12.226562-4.664063-16.890625 0l-5.382813 5.382812c-1.601562 1.601563-4.191406 1.601563-5.789062 0l-5.386719-5.382812c-4.664062-4.664063-12.226562-4.664063-16.890625 0l-4.640625 4.640625c-2.328125 2.328125-3.636719 5.488281-3.636719 8.785156v24.203125h100.347657v-24.203125c0-3.296875-1.308594-6.457031-3.640625-8.785156zm0 0" fill="#fcf2d0"></path><path d="m12.289062 383.921875h139.613282c8.019531 0 15.636718-3.535156 20.816406-9.660156 5.175781-6.125 12.792969-9.660157 20.8125-9.660157h124.332031c14.882813 0 26.949219 12.066407 26.949219 26.949219v8.238281c0 14.882813-12.066406 26.949219-31.359375 26.949219h-284.425781c-7.269532 0-16.738282-9.46875-16.738282-21.148437zm0 0" fill="#e26e7e"></path><path d="m279.710938 412.210938c-4.9375 0-9.820313-2.199219-13.082032-6.402344-5.597656-7.21875-4.285156-17.609375 2.929688-23.210938 18.359375-14.246094 28.449218-45.394531 27.269531-66.085937-.523437-9.121094 6.449219-16.9375 15.570313-17.457031 9.113281-.527344 16.9375 6.449218 17.457031 15.570312 1.671875 29.273438-11.785157 72.207031-40.015625 94.113281-3.015625 2.339844-6.585938 3.472657-10.128906 3.472657zm0 0" fill="#efd176"></path><path d="m65.226562 443.277344c-5.429687 0-10.753906-2.671875-13.917968-7.578125-.902344-1.398438-2.421875-3.769531-4.027344-6.355469-4.820312-7.761719-2.441406-17.960938 5.316406-22.78125 7.761719-4.824219 17.960938-2.441406 22.78125 5.320312 1.492188 2.394532 2.898438 4.589844 3.734375 5.886719 4.953125 7.679688 2.742188 17.917969-4.9375 22.867188-2.773437 1.789062-5.878906 2.640625-8.949219 2.640625zm0 0" fill="#efd176"></path><path d="m388.691406 292.71875c0-4.007812 18.902344-4.582031 18.902344-12.886719 0-8.308593-20.082031-6.929687-30.480469-13.65625-9.480469-6.128906-23.007812-5.042969-27.019531 6.15625-3.046875 8.511719 2.875 15.230469 2.875 20.386719s-5.921875 11.878906-2.875 20.390625c4.011719 11.199219 17.539062 12.285156 27.019531 6.152344 10.398438-6.722657 30.480469-5.347657 30.480469-13.652344 0-8.308594-18.902344-8.878906-18.902344-12.890625zm0 0" fill="#fff"></path><path d="m372.75 393.980469c4.140625 0 7.5-3.355469 7.5-7.5v-32.199219c0-4.140625-3.359375-7.5-7.5-7.5-4.144531 0-7.5 3.359375-7.5 7.5v32.199219c0 4.144531 3.355469 7.5 7.5 7.5zm76.023438 68.34375-8.652344-218.609375c-.585938-14.855469-11.148438-26.917969-25.113282-29.894532v-45.527343c0-3.339844-.703124-6.570313-2.085937-9.59375-1.726563-3.769531-6.175781-5.425781-9.941406-3.699219-3.765625 1.722656-5.421875 6.171875-3.699219 9.941406.484375 1.050782.726562 2.179688.726562 3.351563v44.8125h-8.230468v-26.445313c0-4.140625-3.355469-7.5-7.5-7.5-4.140625 0-7.5 3.359375-7.5 7.5v26.445313h-8.054688v-26.445313c0-4.140625-3.355468-7.5-7.5-7.5-4.140625 0-7.5 3.359375-7.5 7.5v26.445313h-8.226562v-44.8125c0-4.453125 3.621094-8.078125 8.078125-8.078125h22.21875c4.144531 0 7.5-3.355469 7.5-7.5 0-4.140625-3.355469-7.5-7.5-7.5h-22.222657c-12.726562 0-23.078124 10.355468-23.078124 23.078125v45.527343c-7.296876 1.554688-13.660157 5.589844-18.164063 11.207032-6.957031-23.082032-17.949219-43.136719-32.597656-59.1875-1.636719-1.796875-3.316407-3.527344-5.027344-5.203125 10.949219-4.789063 20.296875-11.019531 27.886719-18.605469 24.960937-24.960938 29.417968-62.871094 29.851562-83.246094.113282-5.332031-1.902344-10.347656-5.675781-14.121094-3.777344-3.773437-8.804687-5.796874-14.121094-5.675781-18.296875.390625-50.730469 4.035157-75.234375 22.851563-7.136718-24.558594-23.433594-44.648438-34.183594-55.867188-3.6875-3.851562-8.660156-5.972656-13.996093-5.972656-5.335938 0-10.308594 2.121094-14 5.972656-10.75 11.222656-27.046875 31.3125-34.183594 55.871094-24.503906-18.816406-56.9375-22.464844-75.234375-22.855469-5.328125-.117187-10.347656 1.902344-14.121094 5.675781-3.773437 3.773438-5.789062 8.789063-5.675781 14.121094.4375 20.375 4.894531 58.285156 29.855469 83.246094 7.585937 7.585938 16.933594 13.816406 27.886718 18.605469-1.714843 1.675781-3.394531 3.40625-5.03125 5.203125-23.210937 25.4375-37.25 60.914062-40.597656 102.589844-.507812 6.296874-.789062 12.5-.867187 18.542968-6.828125 1.0625-13.148438 4.207032-18.179688 9.121094-.605469.59375-1.5.921875-2.578125.921875h-.007812c-10.316406 0-20.199219 4.394531-27.113282 12.058594-6.90625 7.660156-10.253906 17.976562-9.1875 28.304687.589844 5.707032 2.539063 11.125 5.664063 15.925782-.691406 2.042968-1.070313 4.195312-1.070313 6.414062v45.871094c0 16.132812 13.027344 28.648437 24.234376 28.648437h12.46875c1.410156 2.257813 2.703124 4.273438 3.515624 5.527344 4.445313 6.898437 12.003907 11.015625 20.21875 11.015625 4.621094 0 9.121094-1.328125 13.015626-3.839844 4.808593-3.101562 8.140624-7.648437 9.796874-12.703125h25.246094c-.804687 12.542969-.992187 24.03125-.539062 34.207031.179687 4.023438 3.5 7.164063 7.488281 7.164063.113281 0 .226563 0 .339844-.007813 4.136719-.183593 7.34375-3.6875 7.15625-7.824218-.4375-9.898438-.238281-21.164063.582031-33.539063h18.144531c-1.160156 16.875-1.558593 37.308594 1.484375 51.871094.496094 2.363281.039063 4.777344-1.28125 6.796875-1.324218 2.023438-3.355468 3.40625-5.714844 3.898438-2.65625.558593-5.429687-.121094-7.527343-1.808594-3.230469-2.597656-7.949219-2.085938-10.546875 1.140625-2.59375 3.226562-2.082032 7.949219 1.144531 10.546875 4.261719 3.429687 9.613281 5.316406 15.0625 5.316406 1.648437 0 3.308594-.171875 4.933594-.511719 6.285156-1.3125 11.683593-4.996093 15.199219-10.371093 3.515624-5.371094 4.730468-11.792969 3.417968-18.078126-2.242187-10.71875-2.621094-27.890624-1.128906-48.804687h55.460938c1.492187 20.914063 1.109374 38.085937-1.128907 48.804687-1.3125 6.285157-.101562 12.707032 3.414063 18.078126 3.519531 5.375 8.914062 9.058593 15.203125 10.371093 1.625.339844 3.285156.511719 4.933593.511719 11.308594 0 21.203126-8.042969 23.515626-19.125 3.082031-14.742188 3.839843-34.453125 2.28125-58.640625h32.660156l-1.113282 28.089844c-.347656 8.746093 2.804688 17.039062 8.867188 23.347656 6.066406 6.308594 14.226562 9.78125 22.976562 9.78125h88.363282c8.75 0 16.910156-3.472656 22.976562-9.78125 6.0625-6.3125 9.210938-14.601563 8.863282-23.347656zm-128.410157-218.015625c.359375-9.085938 7.765625-16.203125 16.859375-16.203125h71.054688c9.09375 0 16.496094 7.117187 16.855468 16.203125l7.90625 199.746094h-120.578124l.386718-9.816407h.605469c22.515625 0 38.855469-14.488281 38.855469-34.449219v-8.238281c0-14.390625-8.839844-26.871093-21.628906-31.980469 5.191406-15.867187 7.429687-31.96875 6.664062-45.371093-.367188-6.410157-3.207031-12.296875-8.003906-16.570313-2.410156-2.152344-5.167969-3.761718-8.128906-4.789062.082031-7.847656-.207032-16.027344-.882813-24.410156-.179687-2.28125-.402344-4.542969-.648437-6.785157zm-79.382812-158.363282c0-2.398437-.117188-4.769531-.328125-7.113281 21.285156-20.699219 54.371094-24.460937 72.3125-24.847656 1.621094-.042969 2.699218.792969 3.195312 1.285156.492188.496094 1.320313 1.570313 1.285156 3.195313-.386718 18.125-4.210937 51.707031-25.464843 72.957031-7.757813 7.757813-17.910157 13.859375-30.199219 18.179687-10.28125-7.613281-21.566406-13.414062-33.664062-17.316406 8.53125-15.671875 12.863281-31.222656 12.863281-46.339844zm-54.917969-69.597656c1.125-1.171875 2.46875-1.347656 3.167969-1.347656s2.042969.175781 3.167969 1.347656c29.21875 30.5 33.582031 56.695313 33.582031 69.597656 0 13.628907-4.359375 27.917969-12.9375 42.535157-7.683594-1.421875-15.632813-2.152344-23.8125-2.152344-8.179688 0-16.128907.730469-23.8125 2.152344-8.578125-14.621094-12.9375-28.910157-12.9375-42.535157 0-12.902343 4.363281-39.097656 33.582031-69.597656zm-99.585938 115.074219c-21.253906-21.25-25.074218-54.832031-25.464843-72.957031-.035157-1.625.792969-2.699219 1.289062-3.191406.492188-.496094 1.585938-1.351563 3.191407-1.285157 17.945312.382813 51.03125 4.144531 72.3125 24.84375-.207032 2.34375-.324219 4.714844-.324219 7.113281 0 15.117188 4.332031 30.667969 12.859375 46.339844-12.097656 3.902344-23.378906 9.703125-33.664063 17.316406-12.289062-4.320312-22.441406-10.421874-30.199219-18.179687zm-13.394531 138.207031c3.078125-38.328125 15.777344-70.722656 36.726563-93.679687 3.976562-4.363281 8.210937-8.324219 12.675781-11.882813.019531-.015625.035156-.03125.054687-.042968 18.699219-14.902344 41.449219-22.695313 66.691407-22.695313 8.804687 0 17.304687.949219 25.441406 2.816406.019531.003907.042969.007813.066406.015625 15.152344 3.488282 29.019531 10.171875 41.175781 19.859375.019532.011719.039063.03125.0625.046875 4.460938 3.558594 8.695313 7.519532 12.671876 11.882813 20.949218 22.957031 33.648437 55.351562 36.730468 93.679687.632813 7.90625.902344 15.601563.824219 22.976563-4.132813 1.273437-7.851563 3.652343-10.804687 6.960937-4.273438 4.792969-6.425782 10.964844-6.058594 17.375.667968 11.730469-2.765625 27.179688-9.277344 40.160156h-86.53125c-10.25 0-19.925781 4.492188-26.542969 12.316407-3.761719 4.449219-9.261719 7.003906-15.089843 7.003906h-31.765626v-16.707031c0-2.214844-.378906-4.371094-1.070312-6.410156 3.125-4.800782 5.074219-10.21875 5.664062-15.925782 1.070313-10.328125-2.28125-20.644531-9.1875-28.304687-6.914062-7.664063-16.796874-12.0625-27.175781-12.0625h-.007812c-1.015625 0-1.910157-.324219-2.515625-.917969-3.882813-3.796875-8.539063-6.535156-13.597656-8.074219.058593-5.972656.335937-12.132812.839843-18.390625zm-57.964843 66.207032c-.644532-6.199219 1.277343-12.136719 5.40625-16.714844 4.074218-4.515625 9.894531-7.109375 16.007812-7.109375h.039062c4.953126 0 9.570313-1.839844 12.996094-5.191407 3.46875-3.390624 8.046875-5.257812 12.894532-5.257812 4.847656 0 9.425781 1.867188 12.894531 5.257812 3.429687 3.351563 8.042969 5.191407 13.035156 5.191407h.039063c6.074218 0 11.898437 2.59375 15.972656 7.109375 4.125 4.578125 6.046875 10.515625 5.40625 16.714844-.15625 1.511718-.488282 2.988281-.960938 4.417968-7.625-6.816406-19.367187-6.585937-26.6875.734375l-2.972656 2.976563-2.976562-2.976563c-7.582032-7.582031-19.917969-7.582031-27.496094 0l-2.976563 2.976563-2.976562-2.976563c-3.671875-3.671875-8.558594-5.695312-13.75-5.695312-4.824219 0-9.367188 1.765625-12.9375 4.960937-.472657-1.433594-.800781-2.90625-.957031-4.417968zm90.019531 23.878906v16.707031h-85.347657v-16.707031c0-.960938.28125-1.875.789063-2.664063.035156-.042969.0625-.089843.097656-.136719.164063-.238281.34375-.46875.554688-.675781l4.640625-4.644531c.839844-.835938 1.957031-1.300781 3.144531-1.300781 1.183594 0 2.300781.464843 3.140625 1.300781l5.386719 5.386719c4.515625 4.519531 11.875 4.519531 16.394531 0l5.382812-5.386719c1.734376-1.730469 4.550782-1.730469 6.285157 0l5.382812 5.386719c4.523438 4.519531 11.875 4.519531 16.398438 0l5.382812-5.386719c1.730469-1.730469 4.550781-1.730469 6.285157 0l4.640624 4.640625c.207032.210937.386719.4375.550782.671875.035156.050781.066406.101562.101562.148438.507813.789062.789063 1.703124.789063 2.660156zm-35.023438 74.621094c-1.464843.941406-3.15625 1.441406-4.886719 1.441406-3.09375 0-5.941406-1.546875-7.613281-4.140625-.886719-1.378907-2.378906-3.707031-3.960937-6.253907-.28125-.449218-.507813-.921874-.703125-1.398437-.035157-.09375-.074219-.1875-.113281-.28125-1.433594-3.933594.027343-8.476563 3.722656-10.769531 1.484375-.921875 3.128906-1.359375 4.757812-1.359375 3.023438 0 5.984375 1.515625 7.695313 4.265625 1.515625 2.441406 2.949219 4.675781 3.800781 5.996094.972656 1.507812 1.429688 3.203124 1.433594 4.878906 0 .003906-.003906.011718-.003906.019531 0 .023437.003906.046875.003906.070313-.027344 2.941406-1.480469 5.820312-4.132813 7.53125zm178.101563 55.46875c-.871094 4.167968-4.585938 7.195312-8.832032 7.195312-.621093 0-1.25-.066406-1.867187-.195312-2.363281-.492188-4.394531-1.878907-5.714844-3.898438-1.324219-2.019531-1.777343-4.4375-1.285156-6.800781 3.042969-14.5625 2.648437-34.996094 1.484375-51.871094h18.144531c1.527344 23.03125.875 42.152344-1.929687 55.570313zm-127.011719-70.570313c-.003906 0-.011719 0-.015625 0h-33.132812c-.625-1.90625-1.5-3.765625-2.636719-5.527344-.824219-1.277343-2.203125-3.429687-3.667969-5.785156-3.390625-5.453125-8.699219-9.261719-14.953125-10.722656-6.253906-1.460938-12.699219-.398438-18.15625 2.992187-6.886719 4.28125-10.855469 11.503906-11.296875 19.042969h-8.316406c-2.375 0-9.238282-5.359375-9.238282-13.644531v-14.167969h92.839844.007813.011719 39.253906c10.25 0 19.921875-4.492187 26.542968-12.320313 3.761719-4.449218 9.261719-7 15.085938-7h76.378906c-1.570312 1.6875-3.21875 3.230469-4.949218 4.570313-10.472657 8.128906-12.382813 23.257813-4.257813 33.734375 3.597656 4.632812 8.636719 7.710938 14.253906 8.828125zm151.351563-18.023437c-3.054688-3.9375-2.335938-9.628907 1.601562-12.6875 20.558594-15.949219 31.476562-49.355469 30.15625-72.4375-.136719-2.410157.671875-4.730469 2.28125-6.535157 1.605469-1.800781 3.820312-2.871093 6.238281-3.007812.113281-.007813.230469-.007813.347657-.011719.03125.003906.058593.007812.089843.007812.097657.007813.195313.007813.296875.007813.035156 0 .066406-.003906.101563-.003906 2.101562.070312 4.097656.855469 5.6875 2.277343 1.804687 1.609376 2.875 3.824219 3.011719 6.234376.773437 13.542968-1.898438 30.191406-7.964844 46.023437-.328125.582031-.578125 1.214844-.746094 1.886719-6.214844 15.457031-15.691406 29.976562-28.414062 39.847656-1.601563 1.242188-3.515626 1.898438-5.53125 1.898438-2.820313 0-5.429688-1.277344-7.15625-3.5zm11.851562 18.023437c3.628906-.714844 7.039062-2.25 10.03125-4.570313 13.390625-10.394531 23.679688-25.164062 30.835938-41.101562 7.125 2.925781 12.035156 9.925781 12.035156 17.988281v8.234375c0 11.453125-9.808594 19.449219-23.855469 19.449219zm144.6875 56.039063c-3.210938 3.339843-7.53125 5.179687-12.164062 5.179687h-15.039063v-7.1875c0-4.144531-3.359375-7.5-7.5-7.5-4.144531 0-7.5 3.355469-7.5 7.5v7.1875h-28.28125v-7.1875c0-4.144531-3.355469-7.5-7.5-7.5s-7.5 3.355469-7.5 7.5v7.1875h-15.042969c-4.632812 0-8.949218-1.835937-12.160156-5.175781s-4.878906-7.730469-4.695312-12.359375l.152343-3.867188h121.769531l.152344 3.867188c.183594 4.628906-1.480468 9.015625-4.691406 12.355469zm-314.515625-179.804688c4.144531 0 7.5-3.359375 7.5-7.5v-12.601562c0-4.140626-3.355469-7.5-7.5-7.5-4.140625 0-7.5 3.359374-7.5 7.5v12.601562c0 4.140625 3.359375 7.5 7.5 7.5zm149.300781 0c4.144532 0 7.5-3.359375 7.5-7.5v-12.601562c0-4.140626-3.359375-7.5-7.5-7.5-4.144531 0-7.5 3.359374-7.5 7.5v12.601562c0 4.140625 3.355469 7.5 7.5 7.5zm-74.648437 36.125c17.1875 0 31.167969-15.246094 31.167969-33.984375 0-12.046875-6.003907-17.621094-11.042969-20.175781-5.441407-2.757813-11.980469-3.324219-20.125-3.324219s-14.683594.566406-20.128907 3.324219c-5.035156 2.554687-11.039062 8.128906-11.039062 20.175781 0 18.738281 13.980469 33.984375 31.167969 33.984375zm0-42.484375c15.511719 0 16.167969 2.605469 16.167969 8.5 0 10.464844-7.253907 18.984375-16.167969 18.984375-8.914063 0-16.167969-8.519531-16.167969-18.984375 0-5.894531.652344-8.5 16.167969-8.5zm0 0"></path></svg>