<?xml version="1.0" encoding="UTF-8"?>
<!DOCTYPE svg PUBLIC "-//W3C//DTD SVG 1.1//EN" "http://www.w3.org/Graphics/SVG/1.1/DTD/svg11.dtd">
<svg xmlns="http://www.w3.org/2000/svg" version="1.1" width="197px" height="198px" style="shape-rendering:geometricPrecision; text-rendering:geometricPrecision; image-rendering:optimizeQuality; fill-rule:evenodd; clip-rule:evenodd" xmlns:xlink="http://www.w3.org/1999/xlink">
<g><path style="opacity:0.956" fill="#92f8f4" d="M 108.5,7.5 C 108.833,7.5 109.167,7.5 109.5,7.5C 109.918,8.22158 110.584,8.72158 111.5,9C 115.17,9.54822 118.837,10.0482 122.5,10.5C 161.554,22.2346 184.721,48.2346 192,88.5C 195.395,135.377 175.895,168.543 133.5,188C 97.4536,200.714 64.4536,195.381 34.5,172C 0.0970651,137.753 -6.73627,98.5866 14,54.5C 15.6985,51.079 17.8652,48.079 20.5,45.5C 22.5869,44.4154 23.9202,42.7488 24.5,40.5C 28.8333,36.8333 32.8333,32.8333 36.5,28.5C 57.7987,12.6267 81.7987,5.62668 108.5,7.5 Z"/></g>
<g><path style="opacity:1" fill="#c7cecd" d="M 108.5,7.5 C 81.7987,5.62668 57.7987,12.6267 36.5,28.5C 50.0586,16.2435 66.0586,9.07682 84.5,7C 92.6775,6.17721 100.677,6.34387 108.5,7.5 Z"/></g>
<g><path style="opacity:1" fill="#b2cccb" d="M 109.5,7.5 C 114.151,7.62681 118.485,8.62681 122.5,10.5C 118.837,10.0482 115.17,9.54822 111.5,9C 110.584,8.72158 109.918,8.22158 109.5,7.5 Z"/></g>
<g><path style="opacity:1" fill="#fcfdfd" d="M 87.5,10.5 C 132.022,8.57002 163.855,27.57 183,67.5C 196.154,106.012 188.321,139.512 159.5,168C 128.907,192.811 95.24,197.811 58.5,183C 17.5121,160.856 0.678781,126.69 8,80.5C 19.8276,40.3589 46.3276,17.0255 87.5,10.5 Z"/></g>
<g><path style="opacity:1" fill="#b3bfbf" d="M 36.5,28.5 C 32.8333,32.8333 28.8333,36.8333 24.5,40.5C 27.5,35.5 31.5,31.5 36.5,28.5 Z"/></g>
<g><path style="opacity:1" fill="#71a3b3" d="M 97.5,40.5 C 90.8039,40.609 84.1373,40.2757 77.5,39.5C 77.5614,41.5922 78.5614,43.0922 80.5,44C 77.9522,45.3273 76.2855,46.8273 75.5,48.5C 70.2731,44.6297 65.1064,40.6297 60,36.5C 59.5065,34.8659 59.3398,33.1992 59.5,31.5C 68.0994,32.5311 76.4327,34.6978 84.5,38C 88.9649,38.8741 93.2983,39.7074 97.5,40.5 Z"/></g>
<g><path style="opacity:1" fill="#7eb7b3" d="M 51.5,40.5 C 55.4819,43.1518 59.1486,46.1518 62.5,49.5C 59.272,50.4137 55.9387,50.7471 52.5,50.5C 54.8926,54.5861 56.2259,59.0861 56.5,64C 55.7773,68.528 55.7773,73.1946 56.5,78C 55.8333,79 55.1667,80 54.5,81C 57.9231,82.9039 61.5898,83.7372 65.5,83.5C 60.7312,84.889 55.7312,85.5557 50.5,85.5C 47.2386,84.4247 43.9052,83.4247 40.5,82.5C 41.7366,80.2213 43.0699,78.0547 44.5,76C 43.8333,75.6667 43.1667,75.3333 42.5,75C 43.1667,68 43.8333,61 44.5,54C 43.6346,50.6237 43.968,47.2904 45.5,44C 44.5,43.6667 43.5,43.3333 42.5,43C 45.3566,40.8621 48.3566,40.0287 51.5,40.5 Z"/></g>
<g><path style="opacity:1" fill="#6591b1" d="M 97.5,40.5 C 99.4144,46.5987 100.914,52.932 102,59.5C 102.769,62.0991 102.602,64.5991 101.5,67C 100.167,67.6667 98.8333,67.6667 97.5,67C 89.9759,60.9688 82.6426,54.8021 75.5,48.5C 76.2855,46.8273 77.9522,45.3273 80.5,44C 78.5614,43.0922 77.5614,41.5922 77.5,39.5C 84.1373,40.2757 90.8039,40.609 97.5,40.5 Z"/></g>
<g><path style="opacity:1" fill="#5a76ac" d="M 119.5,62.5 C 118.504,62.5858 117.671,62.2524 117,61.5C 116.005,58.8738 115.672,56.2071 116,53.5C 116.833,56 118,56.1667 119.5,54C 117.656,51.1963 116.989,48.0297 117.5,44.5C 116.022,44.762 114.689,44.4287 113.5,43.5C 114.827,41.6887 115.827,39.6887 116.5,37.5C 119.631,35.7256 122.631,34.059 125.5,32.5C 129.219,30.7015 133.219,30.2015 137.5,31C 138.591,33.0639 138.758,35.2305 138,37.5C 131.812,45.9011 125.646,54.2344 119.5,62.5 Z"/></g>
<g><path style="opacity:1" fill="#acbfbe" d="M 24.5,40.5 C 23.9202,42.7488 22.5869,44.4154 20.5,45.5C 21.0798,43.2512 22.4131,41.5846 24.5,40.5 Z"/></g>
<g><path style="opacity:1" fill="#5f80ad" d="M 125.5,32.5 C 122.631,34.059 119.631,35.7256 116.5,37.5C 115.827,39.6887 114.827,41.6887 113.5,43.5C 114.689,44.4287 116.022,44.762 117.5,44.5C 116.989,48.0297 117.656,51.1963 119.5,54C 118,56.1667 116.833,56 116,53.5C 115.672,56.2071 116.005,58.8738 117,61.5C 117.671,62.2524 118.504,62.5858 119.5,62.5C 117.176,66.1135 114.343,66.4468 111,63.5C 109.269,56.2203 107.769,48.887 106.5,41.5C 106.931,39.2339 108.264,37.7339 110.5,37C 115.446,35.1835 120.446,33.6835 125.5,32.5 Z"/></g>
<g><path style="opacity:1" fill="#505ea3" d="M 143.5,73.5 C 141.48,70.2001 141.48,66.7001 143.5,63C 141.889,60.7903 141.222,58.2903 141.5,55.5C 140.5,55.5 139.5,55.5 138.5,55.5C 138.343,54.1266 138.51,52.7932 139,51.5C 141.02,49.4494 142.52,47.1161 143.5,44.5C 144.315,39.8366 146.982,37.6699 151.5,38C 154.754,41.4813 156.588,45.648 157,50.5C 157.667,57.1667 157.667,63.8333 157,70.5C 156.5,71 156,71.5 155.5,72C 151.605,73.2662 147.605,73.7662 143.5,73.5 Z"/></g>
<g><path style="opacity:1" fill="#86beb2" d="M 51.5,40.5 C 48.3566,40.0287 45.3566,40.8621 42.5,43C 43.5,43.3333 44.5,43.6667 45.5,44C 43.968,47.2904 43.6346,50.6237 44.5,54C 43.8333,61 43.1667,68 42.5,75C 43.1667,75.3333 43.8333,75.6667 44.5,76C 43.0699,78.0547 41.7366,80.2213 40.5,82.5C 43.9052,83.4247 47.2386,84.4247 50.5,85.5C 47.0242,86.6433 43.3575,86.8099 39.5,86C 39,85.5 38.5,85 38,84.5C 35.6712,72.6153 35.0045,60.6153 36,48.5C 36.9419,45.0073 38.2752,41.674 40,38.5C 41.1171,36.8757 42.6171,35.8757 44.5,35.5C 47.1286,36.8018 49.462,38.4684 51.5,40.5 Z"/></g>
<g><path style="opacity:1" fill="#76abb3" d="M 62.5,49.5 C 67.7218,53.2706 72.7218,57.2706 77.5,61.5C 75.3742,61.8499 73.0408,61.8499 70.5,61.5C 68.8885,68.7206 68.2218,76.0539 68.5,83.5C 67.5,83.5 66.5,83.5 65.5,83.5C 61.5898,83.7372 57.9231,82.9039 54.5,81C 55.1667,80 55.8333,79 56.5,78C 55.7773,73.1946 55.7773,68.528 56.5,64C 56.2259,59.0861 54.8926,54.5861 52.5,50.5C 55.9387,50.7471 59.272,50.4137 62.5,49.5 Z"/></g>
<g><path style="opacity:1" fill="#536ba9" d="M 143.5,44.5 C 142.52,47.1161 141.02,49.4494 139,51.5C 138.51,52.7932 138.343,54.1266 138.5,55.5C 139.5,55.5 140.5,55.5 141.5,55.5C 141.222,58.2903 141.889,60.7903 143.5,63C 141.48,66.7001 141.48,70.2001 143.5,73.5C 137.378,75.0429 131.045,75.5429 124.5,75C 123.251,72.7904 123.418,70.6237 125,68.5C 131.03,60.3146 137.197,52.3146 143.5,44.5 Z"/></g>
<g><path style="opacity:1" fill="#6b9bb3" d="M 77.5,61.5 C 82.7937,65.6223 87.9603,69.9556 93,74.5C 93.6667,76.1667 93.6667,77.8333 93,79.5C 85.0067,81.6051 76.8401,82.9384 68.5,83.5C 68.2218,76.0539 68.8885,68.7206 70.5,61.5C 73.0408,61.8499 75.3742,61.8499 77.5,61.5 Z"/></g>
<g><path style="opacity:1" fill="#6575a0" d="M 154.5,85.5 C 152.669,84.0051 150.502,83.3384 148,83.5C 144.833,83.9008 141.666,84.2341 138.5,84.5C 134.833,85.1667 131.167,85.8333 127.5,86.5C 127.629,88.2161 127.962,89.8828 128.5,91.5C 125.09,89.7776 124.757,87.6109 127.5,85C 136.078,83.0136 144.745,82.347 153.5,83C 154.252,83.6708 154.586,84.5041 154.5,85.5 Z"/></g>
<g><path style="opacity:1" fill="#4d5fa5" d="M 154.5,85.5 C 154.47,89.6179 153.803,93.6179 152.5,97.5C 150.72,98.9899 150.054,100.99 150.5,103.5C 149.5,103.5 148.5,103.5 147.5,103.5C 147.719,102.325 147.386,101.325 146.5,100.5C 145.742,101.811 144.742,102.311 143.5,102C 140.34,98.7732 140.006,95.4398 142.5,92C 141.62,90.6439 141.286,89.1439 141.5,87.5C 139.712,87.7852 138.045,87.4519 136.5,86.5C 137.243,85.8182 137.909,85.1515 138.5,84.5C 141.666,84.2341 144.833,83.9008 148,83.5C 150.502,83.3384 152.669,84.0051 154.5,85.5 Z"/></g>
<g><path style="opacity:1" fill="#7cb2b3" d="M 58.5,93.5 C 58.5,93.8333 58.5,94.1667 58.5,94.5C 59.1534,95.8068 59.8201,97.1401 60.5,98.5C 58.4076,100.346 57.0742,102.679 56.5,105.5C 57.3128,106.814 58.3128,107.981 59.5,109C 57.2494,111.016 56.916,113.349 58.5,116C 56.7795,119.975 56.1128,124.141 56.5,128.5C 57.8333,128.5 59.1667,128.5 60.5,128.5C 59.0773,133.349 58.2439,137.349 58,140.5C 60.0871,139.603 62.2537,138.936 64.5,138.5C 63.0714,143.301 60.0714,144.967 55.5,143.5C 54.5748,142.643 53.9081,141.643 53.5,140.5C 54.4959,140.414 55.3292,140.748 56,141.5C 56.4169,137.819 55.2502,134.653 52.5,132C 52.7355,131.127 53.0688,130.293 53.5,129.5C 50.7963,121.011 50.4629,112.511 52.5,104C 52.3248,102.342 51.6582,101.009 50.5,100C 52.8419,99.1636 54.8419,97.8302 56.5,96C 53.1832,95.5017 49.8499,95.335 46.5,95.5C 50.2357,94.0109 54.2357,93.3442 58.5,93.5 Z"/></g>
<g><path style="opacity:1" fill="#74a5b3" d="M 74.5,91.5 C 72.5007,94.1797 70.5007,96.8464 68.5,99.5C 69.4147,100.328 70.0814,101.328 70.5,102.5C 69.2747,104.892 68.2747,107.392 67.5,110C 69.6359,112.401 70.8026,115.235 71,118.5C 71.6667,119.167 72.3333,119.833 73,120.5C 74.4902,119.272 75.9902,119.272 77.5,120.5C 74.0657,125.716 70.399,130.716 66.5,135.5C 65.6564,130.465 64.3231,125.465 62.5,120.5C 63.8333,118.167 63.8333,115.833 62.5,113.5C 64.1036,112.397 65.1036,110.897 65.5,109C 61.5068,105.02 61.5068,101.02 65.5,97C 63.4308,95.4766 61.0974,94.6432 58.5,94.5C 58.5,94.1667 58.5,93.8333 58.5,93.5C 63.803,92.7027 69.1363,92.036 74.5,91.5 Z"/></g>
<g><path style="opacity:1" fill="#7fb9b3" d="M 46.5,95.5 C 49.8499,95.335 53.1832,95.5017 56.5,96C 54.8419,97.8302 52.8419,99.1636 50.5,100C 51.6582,101.009 52.3248,102.342 52.5,104C 50.4629,112.511 50.7963,121.011 53.5,129.5C 53.0688,130.293 52.7355,131.127 52.5,132C 55.2502,134.653 56.4169,137.819 56,141.5C 55.3292,140.748 54.4959,140.414 53.5,140.5C 49.2105,129.019 45.3771,117.352 42,105.5C 41.3333,102.5 41.3333,99.5 42,96.5C 43.3561,95.6198 44.8561,95.2865 46.5,95.5 Z"/></g>
<g><path style="opacity:1" fill="#77abb3" d="M 58.5,94.5 C 61.0974,94.6432 63.4308,95.4766 65.5,97C 61.5068,101.02 61.5068,105.02 65.5,109C 65.1036,110.897 64.1036,112.397 62.5,113.5C 63.8333,115.833 63.8333,118.167 62.5,120.5C 64.3231,125.465 65.6564,130.465 66.5,135.5C 66.0679,136.71 65.4013,137.71 64.5,138.5C 62.2537,138.936 60.0871,139.603 58,140.5C 58.2439,137.349 59.0773,133.349 60.5,128.5C 59.1667,128.5 57.8333,128.5 56.5,128.5C 56.1128,124.141 56.7795,119.975 58.5,116C 56.916,113.349 57.2494,111.016 59.5,109C 58.3128,107.981 57.3128,106.814 56.5,105.5C 57.0742,102.679 58.4076,100.346 60.5,98.5C 59.8201,97.1401 59.1534,95.8068 58.5,94.5 Z"/></g>
<g><path style="opacity:1" fill="#6d9bb2" d="M 77.5,120.5 C 75.9902,119.272 74.4902,119.272 73,120.5C 72.3333,119.833 71.6667,119.167 71,118.5C 70.8026,115.235 69.6359,112.401 67.5,110C 68.2747,107.392 69.2747,104.892 70.5,102.5C 70.0814,101.328 69.4147,100.328 68.5,99.5C 70.5007,96.8464 72.5007,94.1797 74.5,91.5C 80.808,90.4689 87.1414,89.9689 93.5,90C 95.8855,92.7065 96.0522,95.5398 94,98.5C 88.2477,105.684 82.7477,113.018 77.5,120.5 Z"/></g>
<g><path style="opacity:1" fill="#5569a4" d="M 138.5,84.5 C 137.909,85.1515 137.243,85.8182 136.5,86.5C 138.045,87.4519 139.712,87.7852 141.5,87.5C 141.286,89.1439 141.62,90.6439 142.5,92C 140.006,95.4398 140.34,98.7732 143.5,102C 144.742,102.311 145.742,101.811 146.5,100.5C 147.386,101.325 147.719,102.325 147.5,103.5C 148.5,103.5 149.5,103.5 150.5,103.5C 150.054,100.99 150.72,98.9899 152.5,97.5C 152.221,100.118 151.554,102.618 150.5,105C 148.5,105.667 146.5,105.667 144.5,105C 139.269,100.26 133.936,95.7597 128.5,91.5C 127.962,89.8828 127.629,88.2161 127.5,86.5C 131.167,85.8333 134.833,85.1667 138.5,84.5 Z"/></g>
<g><path style="opacity:1" fill="#5975a9" d="M 132.5,106.5 C 130.141,107.176 127.808,108.009 125.5,109C 127.345,112.329 129.345,115.495 131.5,118.5C 129.881,126.362 128.547,134.362 127.5,142.5C 127.417,145.54 128.084,148.373 129.5,151C 131.134,151.494 132.801,151.66 134.5,151.5C 132.712,152.622 130.712,152.789 128.5,152C 124.727,135.633 121.393,119.133 118.5,102.5C 118.667,101.167 118.833,99.8333 119,98.5C 119.561,97.9781 120.228,97.6448 121,97.5C 125.295,99.9683 129.129,102.968 132.5,106.5 Z"/></g>
<g><path style="opacity:1" fill="#556daa" d="M 132.5,106.5 C 138.445,109.47 143.112,113.803 146.5,119.5C 143.445,130.681 139.445,141.348 134.5,151.5C 132.801,151.66 131.134,151.494 129.5,151C 128.084,148.373 127.417,145.54 127.5,142.5C 128.547,134.362 129.881,126.362 131.5,118.5C 129.345,115.495 127.345,112.329 125.5,109C 127.808,108.009 130.141,107.176 132.5,106.5 Z"/></g>
<g><path style="opacity:1" fill="#6086af" d="M 109.5,104.5 C 112.253,113.193 114.253,122.193 115.5,131.5C 112.723,126.994 111.223,121.994 111,116.5C 110,120.5 109,120.5 108,116.5C 107.308,117.025 106.808,117.692 106.5,118.5C 107.01,123.464 108.01,128.297 109.5,133C 108.365,138.694 109.031,144.194 111.5,149.5C 108.937,153.192 108.937,156.859 111.5,160.5C 110.873,161.417 110.539,162.417 110.5,163.5C 108.855,158.697 107.522,153.697 106.5,148.5C 106.478,143.042 104.645,138.376 101,134.5C 100.749,132.567 100.249,130.734 99.5,129C 100.448,128.517 101.448,128.351 102.5,128.5C 102.665,124.818 102.499,121.152 102,117.5C 101.667,118.167 101.333,118.833 101,119.5C 99.0714,116.754 99.238,114.087 101.5,111.5C 100.91,110.201 99.91,109.368 98.5,109C 99.7504,106.619 101.417,104.619 103.5,103C 105.689,102.678 107.689,103.178 109.5,104.5 Z"/></g>
<g><path style="opacity:1" fill="#6690b1" d="M 109.5,104.5 C 107.689,103.178 105.689,102.678 103.5,103C 101.417,104.619 99.7504,106.619 98.5,109C 99.91,109.368 100.91,110.201 101.5,111.5C 99.238,114.087 99.0714,116.754 101,119.5C 101.333,118.833 101.667,118.167 102,117.5C 102.499,121.152 102.665,124.818 102.5,128.5C 101.448,128.351 100.448,128.517 99.5,129C 100.249,130.734 100.749,132.567 101,134.5C 104.645,138.376 106.478,143.042 106.5,148.5C 104.691,142.724 101.691,137.558 97.5,133C 95.5646,133.058 93.8979,133.891 92.5,135.5C 91.5041,135.414 90.6708,135.748 90,136.5C 89.7023,141.315 87.8689,142.315 84.5,139.5C 84.9767,138.522 85.6433,137.689 86.5,137C 85.2045,132.831 84.8712,128.664 85.5,124.5C 90.4458,116.795 95.7792,109.295 101.5,102C 103.5,101.333 105.5,101.333 107.5,102C 108.756,102.417 109.423,103.25 109.5,104.5 Z"/></g>
<g><path style="opacity:1" fill="#6a98b1" d="M 85.5,124.5 C 84.8712,128.664 85.2045,132.831 86.5,137C 85.6433,137.689 84.9767,138.522 84.5,139.5C 87.8689,142.315 89.7023,141.315 90,136.5C 90.6708,135.748 91.5041,135.414 92.5,135.5C 89.053,142.17 86.3864,149.17 84.5,156.5C 82.7531,157.981 81.5864,159.981 81,162.5C 80.1853,160.377 79.1853,158.377 78,156.5C 77.8104,150.584 77.3104,144.751 76.5,139C 77.7932,138.51 79.1266,138.343 80.5,138.5C 80.31,134.968 80.9767,131.635 82.5,128.5C 82.7376,126.596 83.7376,125.262 85.5,124.5 Z"/></g>
<g><path style="opacity:1" fill="#6fa0b3" d="M 82.5,128.5 C 80.9767,131.635 80.31,134.968 80.5,138.5C 79.1266,138.343 77.7932,138.51 76.5,139C 77.3104,144.751 77.8104,150.584 78,156.5C 79.1853,158.377 80.1853,160.377 81,162.5C 81.5864,159.981 82.7531,157.981 84.5,156.5C 83.0177,163.099 81.8511,169.766 81,176.5C 79.529,180.546 77.029,181.379 73.5,179C 68.2516,172.742 64.2516,165.742 61.5,158C 67.6569,147.501 74.6569,137.668 82.5,128.5 Z"/></g>
<g><path style="opacity:1" fill="#5f80ae" d="M 115.5,131.5 C 117.596,142.479 119.762,153.479 122,164.5C 122.667,168.167 122.667,171.833 122,175.5C 119.924,180.064 116.924,181.064 113,178.5C 111.471,173.636 110.638,168.636 110.5,163.5C 110.539,162.417 110.873,161.417 111.5,160.5C 108.937,156.859 108.937,153.192 111.5,149.5C 109.031,144.194 108.365,138.694 109.5,133C 108.01,128.297 107.01,123.464 106.5,118.5C 106.808,117.692 107.308,117.025 108,116.5C 109,120.5 110,120.5 111,116.5C 111.223,121.994 112.723,126.994 115.5,131.5 Z"/></g>
</svg>
