<!-- icon666.com - MILLIONS vector ICONS FREE --><svg id="Layer_1" enable-background="new 0 0 256 256" viewBox="0 0 256 256" xmlns="http://www.w3.org/2000/svg"><g><g><path d="m231.899 147.549-103.899-3.044-103.899 3.044c-2.579.076-4.631 2.188-4.631 4.769v35.917h108.53 108.53v-35.917c0-2.58-2.052-4.693-4.631-4.769z" fill="#f9cfcf" style="fill: rgb(240, 245, 229);"></path></g><g><path d="m236.529 190.235h-217.058c-1.104 0-2-.896-2-2v-35.917c0-3.687 2.887-6.659 6.572-6.768l103.898-3.045c.039-.002.078-.002.117 0l103.898 3.045c3.686.108 6.572 3.081 6.572 6.768v35.917c.001 1.104-.894 2-1.999 2zm-215.058-4h213.059v-33.917c0-1.508-1.182-2.725-2.689-2.77l-103.841-3.043-103.84 3.043c-1.508.045-2.689 1.261-2.689 2.77z" fill="#3762cc"></path></g><g><path d="m128 69.766h-108.53v35.917c0 2.58 2.052 4.693 4.631 4.769l103.899 3.044 103.899-3.044c2.579-.076 4.631-2.188 4.631-4.769v-35.917z" fill="#f9cfcf" style="fill: rgb(240, 245, 229);"></path></g><g><path d="m128 115.496c-.02 0-.039 0-.059-.001l-103.898-3.045c-3.686-.108-6.572-3.081-6.572-6.768v-35.916c0-1.104.896-2 2-2h217.059c1.104 0 2 .896 2 2v35.917c0 3.687-2.887 6.659-6.572 6.768l-103.898 3.045c-.021 0-.04 0-.06 0zm-106.529-43.73v33.917c0 1.509 1.182 2.725 2.689 2.77l103.84 3.042 103.84-3.043c1.508-.045 2.689-1.261 2.689-2.77v-33.916z" fill="#3762cc"></path></g><g><g><path d="m123.229 129h-14.338c-2.635 0-4.771-2.136-4.771-4.771v-21.865c0-2.635 2.136-4.771 4.771-4.771h14.338c2.635 0 4.771 2.136 4.771 4.771v21.865c0 2.635-2.136 4.771-4.771 4.771z" fill="#e0ebfc"></path></g><g><path d="m147.108 129h-14.338c-2.635 0-4.771-2.136-4.771-4.771v-21.865c0-2.635 2.136-4.771 4.771-4.771h14.338c2.635 0 4.771 2.136 4.771 4.771v21.865c0 2.635-2.136 4.771-4.771 4.771z" fill="#e0ebfc"></path></g><g><path d="m170.987 129h-14.338c-2.635 0-4.771-2.136-4.771-4.771v-21.865c0-2.635 2.136-4.771 4.771-4.771h14.338c2.635 0 4.771 2.136 4.771 4.771v21.865c0 2.635-2.136 4.771-4.771 4.771z" fill="#e0ebfc"></path></g><g><path d="m54.205 129h-7.412c-2.635 0-4.771-2.136-4.771-4.771v-21.865c0-2.635 2.136-4.771 4.771-4.771h7.412c2.635 0 4.771 2.136 4.771 4.771v21.865c-.001 2.635-2.137 4.771-4.771 4.771z" fill="#e0ebfc"></path></g><g><path d="m75.405 129h-11.541c-2.635 0-4.771-2.136-4.771-4.771v-21.865c0-2.635 2.136-4.771 4.771-4.771h11.542c2.635 0 4.771 2.136 4.771 4.771v21.865c-.001 2.635-2.137 4.771-4.772 4.771z" fill="#e0ebfc"></path></g><g><path d="m99.284 129h-14.338c-2.635 0-4.771-2.136-4.771-4.771v-21.865c0-2.635 2.136-4.771 4.771-4.771h14.338c2.635 0 4.771 2.136 4.771 4.771v21.865c-.001 2.635-2.136 4.771-4.771 4.771z" fill="#e0ebfc"></path></g><g><path d="m37.252 129h-3.47c-2.635 0-4.771-2.136-4.771-4.771v-21.865c0-2.635 2.136-4.771 4.771-4.771h3.47c2.635 0 4.771 2.136 4.771 4.771v21.865c-.001 2.635-2.137 4.771-4.771 4.771z" fill="#e0ebfc"></path></g><g><path d="m201.729 97.594h7.412c2.635 0 4.771 2.136 4.771 4.771v21.865c0 2.635-2.136 4.771-4.771 4.771h-7.412c-2.635 0-4.771-2.136-4.771-4.771v-21.865c0-2.635 2.136-4.771 4.771-4.771z" fill="#e0ebfc"></path></g><g><path d="m180.528 97.594h11.542c2.635 0 4.771 2.136 4.771 4.771v21.865c0 2.635-2.136 4.771-4.771 4.771h-11.542c-2.635 0-4.771-2.136-4.771-4.771v-21.865c.001-2.635 2.136-4.771 4.771-4.771z" fill="#e0ebfc"></path></g><g><path d="m218.681 97.594h3.47c2.635 0 4.771 2.136 4.771 4.771v21.865c0 2.635-2.136 4.771-4.771 4.771h-3.47c-2.635 0-4.771-2.136-4.771-4.771v-21.865c.001-2.635 2.137-4.771 4.771-4.771z" fill="#e0ebfc"></path></g><g><path d="m132.771 129h14.338c2.635 0 4.771 2.136 4.771 4.771v21.865c0 2.635-2.136 4.771-4.771 4.771h-14.338c-2.635 0-4.771-2.136-4.771-4.771v-21.865c0-2.635 2.136-4.771 4.771-4.771z" fill="#e0ebfc"></path></g><g><path d="m108.892 129h14.338c2.635 0 4.771 2.136 4.771 4.771v21.865c0 2.635-2.136 4.771-4.771 4.771h-14.338c-2.635 0-4.771-2.136-4.771-4.771v-21.865c0-2.635 2.136-4.771 4.771-4.771z" fill="#e0ebfc"></path></g><g><path d="m85.013 129h14.338c2.635 0 4.771 2.136 4.771 4.771v21.865c0 2.635-2.136 4.771-4.771 4.771h-14.338c-2.635 0-4.771-2.136-4.771-4.771v-21.865c0-2.635 2.136-4.771 4.771-4.771z" fill="#e0ebfc"></path></g><g><path d="m201.795 129h7.412c2.635 0 4.771 2.136 4.771 4.771v21.865c0 2.635-2.136 4.771-4.771 4.771h-7.412c-2.635 0-4.771-2.136-4.771-4.771v-21.865c.001-2.635 2.137-4.771 4.771-4.771z" fill="#e0ebfc"></path></g><g><path d="m180.595 129h11.542c2.635 0 4.771 2.136 4.771 4.771v21.865c0 2.635-2.136 4.771-4.771 4.771h-11.542c-2.635 0-4.771-2.136-4.771-4.771v-21.865c0-2.635 2.136-4.771 4.771-4.771z" fill="#e0ebfc"></path></g><g><path d="m156.716 129h14.338c2.635 0 4.771 2.136 4.771 4.771v21.865c0 2.635-2.136 4.771-4.771 4.771h-14.338c-2.635 0-4.771-2.136-4.771-4.771v-21.865c.001-2.635 2.136-4.771 4.771-4.771z" fill="#e0ebfc"></path></g><g><path d="m218.748 129h3.47c2.635 0 4.771 2.136 4.771 4.771v21.865c0 2.635-2.136 4.771-4.771 4.771h-3.47c-2.635 0-4.771-2.136-4.771-4.771v-21.865c.001-2.635 2.137-4.771 4.771-4.771z" fill="#e0ebfc"></path></g><g><path d="m54.271 160.406h-7.411c-2.635 0-4.771-2.136-4.771-4.771v-21.865c0-2.635 2.136-4.771 4.771-4.771h7.412c2.635 0 4.771 2.136 4.771 4.771v21.865c-.001 2.635-2.137 4.771-4.772 4.771z" fill="#e0ebfc"></path></g><g><path d="m75.472 160.406h-11.542c-2.635 0-4.771-2.136-4.771-4.771v-21.865c0-2.635 2.136-4.771 4.771-4.771h11.542c2.635 0 4.771 2.136 4.771 4.771v21.865c-.001 2.635-2.136 4.771-4.771 4.771z" fill="#e0ebfc"></path></g><g><path d="m37.319 160.406h-3.47c-2.635 0-4.771-2.136-4.771-4.771v-21.865c0-2.635 2.136-4.771 4.771-4.771h3.47c2.635 0 4.771 2.136 4.771 4.771v21.865c-.001 2.635-2.137 4.771-4.771 4.771z" fill="#e0ebfc"></path></g></g><g><g><path d="m123.229 131h-14.338c-3.733 0-6.771-3.037-6.771-6.771v-21.865c0-3.733 3.037-6.771 6.771-6.771h14.338c3.733 0 6.771 3.037 6.771 6.771v21.865c0 3.734-3.037 6.771-6.771 6.771zm-14.337-31.406c-1.527 0-2.771 1.243-2.771 2.771v21.865c0 1.527 1.243 2.771 2.771 2.771h14.338c1.527 0 2.771-1.243 2.771-2.771v-21.865c0-1.527-1.243-2.771-2.771-2.771z" fill="#3762cc"></path></g><g><path d="m147.108 131h-14.338c-3.733 0-6.771-3.037-6.771-6.771v-21.865c0-3.733 3.037-6.771 6.771-6.771h14.338c3.733 0 6.771 3.037 6.771 6.771v21.865c0 3.734-3.037 6.771-6.771 6.771zm-14.337-31.406c-1.527 0-2.771 1.243-2.771 2.771v21.865c0 1.527 1.243 2.771 2.771 2.771h14.338c1.527 0 2.771-1.243 2.771-2.771v-21.865c0-1.527-1.243-2.771-2.771-2.771z" fill="#3762cc"></path></g><g><path d="m170.987 131h-14.338c-3.733 0-6.771-3.037-6.771-6.771v-21.865c0-3.733 3.037-6.771 6.771-6.771h14.338c3.733 0 6.771 3.037 6.771 6.771v21.865c0 3.734-3.037 6.771-6.771 6.771zm-14.338-31.406c-1.527 0-2.771 1.243-2.771 2.771v21.865c0 1.527 1.243 2.771 2.771 2.771h14.338c1.527 0 2.771-1.243 2.771-2.771v-21.865c0-1.527-1.243-2.771-2.771-2.771z" fill="#3762cc"></path></g><g><path d="m54.204 131h-7.411c-3.733 0-6.771-3.037-6.771-6.771v-21.865c0-3.733 3.037-6.771 6.771-6.771h7.411c3.733 0 6.771 3.037 6.771 6.771v21.865c0 3.734-3.038 6.771-6.771 6.771zm-7.411-31.406c-1.527 0-2.771 1.243-2.771 2.771v21.865c0 1.527 1.243 2.771 2.771 2.771h7.411c1.527 0 2.771-1.243 2.771-2.771v-21.865c0-1.527-1.243-2.771-2.771-2.771z" fill="#3762cc"></path></g><g><path d="m75.405 131h-11.542c-3.733 0-6.771-3.037-6.771-6.771v-21.865c0-3.733 3.037-6.771 6.771-6.771h11.542c3.733 0 6.771 3.037 6.771 6.771v21.865c0 3.734-3.037 6.771-6.771 6.771zm-11.542-31.406c-1.527 0-2.771 1.243-2.771 2.771v21.865c0 1.527 1.243 2.771 2.771 2.771h11.542c1.527 0 2.771-1.243 2.771-2.771v-21.865c0-1.527-1.243-2.771-2.771-2.771z" fill="#3762cc"></path></g><g><path d="m99.284 131h-14.338c-3.733 0-6.771-3.037-6.771-6.771v-21.865c0-3.733 3.037-6.771 6.771-6.771h14.338c3.733 0 6.771 3.037 6.771 6.771v21.865c0 3.734-3.037 6.771-6.771 6.771zm-14.338-31.406c-1.527 0-2.771 1.243-2.771 2.771v21.865c0 1.527 1.243 2.771 2.771 2.771h14.338c1.527 0 2.771-1.243 2.771-2.771v-21.865c0-1.527-1.243-2.771-2.771-2.771z" fill="#3762cc"></path></g><g><path d="m37.252 131h-3.47c-3.733 0-6.771-3.037-6.771-6.771v-21.865c0-3.733 3.037-6.771 6.771-6.771h3.47c3.733 0 6.771 3.037 6.771 6.771v21.865c-.001 3.734-3.038 6.771-6.771 6.771zm-3.47-31.406c-1.527 0-2.771 1.243-2.771 2.771v21.865c0 1.527 1.243 2.771 2.771 2.771h3.47c1.527 0 2.771-1.243 2.771-2.771v-21.865c0-1.527-1.243-2.771-2.771-2.771z" fill="#3762cc"></path></g><g><path d="m209.141 131h-7.412c-3.733 0-6.771-3.037-6.771-6.771v-21.865c0-3.733 3.037-6.771 6.771-6.771h7.412c3.733 0 6.771 3.037 6.771 6.771v21.865c-.001 3.734-3.038 6.771-6.771 6.771zm-7.412-31.406c-1.527 0-2.771 1.243-2.771 2.771v21.865c0 1.527 1.243 2.771 2.771 2.771h7.412c1.527 0 2.771-1.243 2.771-2.771v-21.865c0-1.527-1.243-2.771-2.771-2.771z" fill="#3762cc"></path></g><g><path d="m192.069 131h-11.541c-3.733 0-6.771-3.037-6.771-6.771v-21.865c0-3.733 3.037-6.771 6.771-6.771h11.541c3.733 0 6.771 3.037 6.771 6.771v21.865c0 3.734-3.037 6.771-6.771 6.771zm-11.541-31.406c-1.527 0-2.771 1.243-2.771 2.771v21.865c0 1.527 1.243 2.771 2.771 2.771h11.541c1.527 0 2.771-1.243 2.771-2.771v-21.865c0-1.527-1.243-2.771-2.771-2.771z" fill="#3762cc"></path></g><g><path d="m222.151 131h-3.47c-3.733 0-6.771-3.037-6.771-6.771v-21.865c0-3.733 3.037-6.771 6.771-6.771h3.47c3.733 0 6.771 3.037 6.771 6.771v21.865c0 3.734-3.037 6.771-6.771 6.771zm-3.469-31.406c-1.527 0-2.771 1.243-2.771 2.771v21.865c0 1.527 1.243 2.771 2.771 2.771h3.47c1.527 0 2.771-1.243 2.771-2.771v-21.865c0-1.527-1.243-2.771-2.771-2.771z" fill="#3762cc"></path></g><g><path d="m147.108 162.406h-14.338c-3.733 0-6.771-3.037-6.771-6.771v-21.865c0-3.733 3.037-6.771 6.771-6.771h14.338c3.733 0 6.771 3.037 6.771 6.771v21.865c0 3.734-3.037 6.771-6.771 6.771zm-14.337-31.406c-1.527 0-2.771 1.243-2.771 2.771v21.865c0 1.527 1.243 2.771 2.771 2.771h14.338c1.527 0 2.771-1.243 2.771-2.771v-21.865c0-1.527-1.243-2.771-2.771-2.771z" fill="#3762cc"></path></g><g><path d="m123.229 162.406h-14.338c-3.733 0-6.771-3.037-6.771-6.771v-21.865c0-3.733 3.037-6.771 6.771-6.771h14.338c3.733 0 6.771 3.037 6.771 6.771v21.865c0 3.734-3.037 6.771-6.771 6.771zm-14.337-31.406c-1.527 0-2.771 1.243-2.771 2.771v21.865c0 1.527 1.243 2.771 2.771 2.771h14.338c1.527 0 2.771-1.243 2.771-2.771v-21.865c0-1.527-1.243-2.771-2.771-2.771z" fill="#3762cc"></path></g><g><path d="m99.351 162.406h-14.338c-3.733 0-6.771-3.037-6.771-6.771v-21.865c0-3.733 3.037-6.771 6.771-6.771h14.338c3.733 0 6.771 3.037 6.771 6.771v21.865c-.001 3.734-3.038 6.771-6.771 6.771zm-14.338-31.406c-1.527 0-2.771 1.243-2.771 2.771v21.865c0 1.527 1.243 2.771 2.771 2.771h14.338c1.527 0 2.771-1.243 2.771-2.771v-21.865c0-1.527-1.243-2.771-2.771-2.771z" fill="#3762cc"></path></g><g><path d="m209.207 162.406h-7.411c-3.733 0-6.771-3.037-6.771-6.771v-21.865c0-3.733 3.037-6.771 6.771-6.771h7.411c3.733 0 6.771 3.037 6.771 6.771v21.865c0 3.734-3.038 6.771-6.771 6.771zm-7.411-31.406c-1.527 0-2.771 1.243-2.771 2.771v21.865c0 1.527 1.243 2.771 2.771 2.771h7.411c1.527 0 2.771-1.243 2.771-2.771v-21.865c0-1.527-1.243-2.771-2.771-2.771z" fill="#3762cc"></path></g><g><path d="m192.137 162.406h-11.542c-3.733 0-6.771-3.037-6.771-6.771v-21.865c0-3.733 3.037-6.771 6.771-6.771h11.542c3.733 0 6.771 3.037 6.771 6.771v21.865c-.001 3.734-3.038 6.771-6.771 6.771zm-11.542-31.406c-1.527 0-2.771 1.243-2.771 2.771v21.865c0 1.527 1.243 2.771 2.771 2.771h11.542c1.527 0 2.771-1.243 2.771-2.771v-21.865c0-1.527-1.243-2.771-2.771-2.771z" fill="#3762cc"></path></g><g><path d="m171.054 162.406h-14.338c-3.733 0-6.771-3.037-6.771-6.771v-21.865c0-3.733 3.037-6.771 6.771-6.771h14.338c3.733 0 6.771 3.037 6.771 6.771v21.865c-.001 3.734-3.038 6.771-6.771 6.771zm-14.338-31.406c-1.527 0-2.771 1.243-2.771 2.771v21.865c0 1.527 1.243 2.771 2.771 2.771h14.338c1.527 0 2.771-1.243 2.771-2.771v-21.865c0-1.527-1.243-2.771-2.771-2.771z" fill="#3762cc"></path></g><g><path d="m222.218 162.406h-3.47c-3.733 0-6.771-3.037-6.771-6.771v-21.865c0-3.733 3.037-6.771 6.771-6.771h3.47c3.733 0 6.771 3.037 6.771 6.771v21.865c-.001 3.734-3.038 6.771-6.771 6.771zm-3.47-31.406c-1.527 0-2.771 1.243-2.771 2.771v21.865c0 1.527 1.243 2.771 2.771 2.771h3.47c1.527 0 2.771-1.243 2.771-2.771v-21.865c0-1.527-1.243-2.771-2.771-2.771z" fill="#3762cc"></path></g><g><path d="m54.271 162.406h-7.412c-3.733 0-6.771-3.037-6.771-6.771v-21.865c0-3.733 3.037-6.771 6.771-6.771h7.412c3.733 0 6.771 3.037 6.771 6.771v21.865c0 3.734-3.037 6.771-6.771 6.771zm-7.412-31.406c-1.527 0-2.771 1.243-2.771 2.771v21.865c0 1.527 1.243 2.771 2.771 2.771h7.412c1.527 0 2.771-1.243 2.771-2.771v-21.865c0-1.527-1.243-2.771-2.771-2.771z" fill="#3762cc"></path></g><g><path d="m75.472 162.406h-11.541c-3.733 0-6.771-3.037-6.771-6.771v-21.865c0-3.733 3.037-6.771 6.771-6.771h11.541c3.733 0 6.771 3.037 6.771 6.771v21.865c-.001 3.734-3.038 6.771-6.771 6.771zm-11.541-31.406c-1.527 0-2.771 1.243-2.771 2.771v21.865c0 1.527 1.243 2.771 2.771 2.771h11.541c1.527 0 2.771-1.243 2.771-2.771v-21.865c0-1.527-1.243-2.771-2.771-2.771z" fill="#3762cc"></path></g><g><path d="m37.318 162.406h-3.47c-3.733 0-6.771-3.037-6.771-6.771v-21.865c0-3.733 3.037-6.771 6.771-6.771h3.47c3.733 0 6.771 3.037 6.771 6.771v21.865c0 3.734-3.037 6.771-6.771 6.771zm-3.469-31.406c-1.527 0-2.771 1.243-2.771 2.771v21.865c0 1.527 1.243 2.771 2.771 2.771h3.47c1.527 0 2.771-1.243 2.771-2.771v-21.865c0-1.527-1.243-2.771-2.771-2.771z" fill="#3762cc"></path></g></g><g><path d="m128 40.311-116.855 7.553c-1.578.102-2.806 1.412-2.806 2.994v28.791c0 1.733 1.464 3.106 3.194 2.994l116.467-7.529 116.468 7.528c1.729.112 3.193-1.261 3.193-2.994v-28.79c0-1.582-1.228-2.892-2.807-2.994z" fill="#f9a7a7" style="fill: rgb(196, 120, 120);"></path></g><g><path d="m128 180.886-116.468-7.528c-1.729-.112-3.194 1.261-3.194 2.994v28.791c0 1.582 1.228 2.892 2.806 2.994l116.856 7.553 116.855-7.553c1.578-.102 2.807-1.412 2.807-2.994v-28.791c0-1.733-1.464-3.106-3.193-2.994z" fill="#f9a7a7" style="fill: rgb(196, 120, 120);"></path></g><g><path d="m11.341 84.648c-1.263 0-2.495-.482-3.421-1.351-1.005-.942-1.581-2.271-1.581-3.648v-28.791c0-2.628 2.055-4.819 4.677-4.99l116.855-7.553c.086-.006.172-.006.258 0l116.854 7.553c2.623.171 4.678 2.362 4.678 4.99v28.791c0 1.377-.576 2.706-1.581 3.648-1.004.941-2.355 1.435-3.742 1.341l-116.338-7.521-116.339 7.521c-.106.007-.214.01-.32.01zm116.659-42.333-116.726 7.545c-.524.034-.936.473-.936.998v28.791c0 .377.198.619.316.729.117.11.375.3.747.268l116.469-7.528c.086-.006.172-.006.258 0l116.468 7.528c.378.024.631-.157.748-.268.118-.11.316-.353.316-.729v-28.791c0-.525-.411-.964-.937-.998z" fill="#3762cc"></path></g><g><path d="m128 217.69c-.043 0-.086-.001-.129-.004l-116.854-7.553c-2.623-.171-4.678-2.362-4.678-4.99v-28.791c0-1.377.576-2.706 1.581-3.648 1.004-.941 2.358-1.428 3.742-1.341l116.338 7.52 116.339-7.521c1.371-.088 2.737.399 3.741 1.341 1.005.942 1.581 2.271 1.581 3.648v28.791c0 2.628-2.055 4.819-4.677 4.99l-116.855 7.553c-.043.004-.086.005-.129.005zm-116.665-42.338c-.339 0-.569.167-.68.271-.118.11-.316.353-.316.729v28.791c0 .525.411.964.937.998l116.724 7.545 116.726-7.545c.524-.034.936-.473.936-.998v-28.791c0-.377-.198-.619-.316-.729-.117-.109-.372-.304-.747-.268l-116.469 7.528c-.086.006-.172.006-.258 0l-116.468-7.528c-.024-.002-.047-.003-.069-.003z" fill="#3762cc"></path></g></g></svg>