<svg width="24" height="24" viewBox="0 0 24 24" fill="none" xmlns="http://www.w3.org/2000/svg">
<g clip-path="url(#clip0_1112_2847)">
<path d="M18.9184 2.47057e-05C18.2508 -0.00203877 17.5893 0.125177 16.9725 0.374285C16.3557 0.623392 15.7958 0.989425 15.3254 1.45112L1.38665 15.0314C1.20786 15.2059 1.09025 15.4309 1.05063 15.6745L0.0149739 22.0331C-0.0148834 22.2156 4.64004e-05 22.4023 0.05854 22.578C0.117034 22.7537 0.217426 22.9135 0.351492 23.0441C0.485557 23.1747 0.64948 23.2725 0.829829 23.3295C1.01018 23.3865 1.20182 23.4011 1.38905 23.372L7.92102 22.3629C8.17096 22.3243 8.40197 22.2097 8.58106 22.0355L22.5126 8.45406C23.2234 7.76094 23.7072 6.878 23.9028 5.91693C24.0985 4.95586 23.9972 3.95984 23.6118 3.05486C23.2264 2.14988 22.5742 1.3766 21.7377 0.832828C20.9012 0.289061 19.918 -0.000760166 18.9124 2.47057e-05H18.9184ZM7.15298 20.112L2.64072 20.8135L3.36076 16.4205L13.4293 6.6089L17.2239 10.3062L7.15298 20.112ZM20.8157 6.80067L18.9196 8.65284L15.1214 4.95201L17.0187 3.10451C17.5297 2.62925 18.209 2.36407 18.9154 2.36407C19.6219 2.36407 20.3011 2.62925 20.8121 3.10451C21.0614 3.34712 21.2591 3.63521 21.394 3.95231C21.5289 4.26942 21.5984 4.60932 21.5984 4.95259C21.5984 5.29586 21.5289 5.63577 21.394 5.95287C21.2591 6.26998 21.0614 6.55807 20.8121 6.80067H20.8157Z" fill="#212121" fill-opacity="0.5"/>
</g>
<defs>
<clipPath id="clip0_1112_2847">
<rect width="24.0001" height="24" fill="white"/>
</clipPath>
</defs>
</svg>
