<!-- icon666.com - MILLIONS vector ICONS FREE --><svg clip-rule="evenodd" fill-rule="evenodd" image-rendering="optimizeQuality" shape-rendering="geometricPrecision" text-rendering="geometricPrecision" viewBox="0 0 6.82666 6.82666" xmlns="http://www.w3.org/2000/svg"><g id="Layer_x0020_1"><path d="m4.12346.933335v1.76987h1.76987c.0441811 0 .08.0358189.08.08v1.26026c0 .0441811-.0358189.08-.08.08-.00237008 0-.00471654-.0001063-.00703543-.00031102l-1.76283-.00000394v1.77019c0 .0441811-.0358189.08-.08.08h-1.26026c-.0441811 0-.08-.0358189-.08-.08v-1.76987h-1.76987c-.0441811 0-.08-.0358189-.08-.08 0-.00237008.0001063-.00471654.00031102-.00703543l-.00000394-1.25322h-.00031102c0-.0441811.0358189-.08.08-.08h1.76987v-1.76987c0-.0441811.0358189-.08.08-.08.00237008 0 .00471654.0001063.00703543.00031102l1.25322.00000394v-.00031102c.0441811 0 .08.0358189.08.08zm-.16 1.84987v-1.77018l-1.10026-.00000394v1.77018c0 .0441811-.0358189.08-.08.08h-1.77019l.00000394 1.10026h1.77018c.0441811 0 .08.0358189.08.08v1.76987h1.10026v-1.76987c0-.0441811.0358189-.08.08-.08v.00031102l1.76987.00000394v-1.10057h-1.76987c-.0441811 0-.08-.0358189-.08-.08z" fill-rule="nonzero"></path></g></svg>