<svg width="870" height="422" viewBox="0 0 870 422" fill="none" xmlns="http://www.w3.org/2000/svg">
<path d="M38.1927 55.8383L34.3665 56.548C29.8194 57.3915 25.6342 57.5041 21.8109 56.8859C17.9875 56.2677 14.6087 54.9844 11.6745 53.0358C8.74025 51.0872 6.31936 48.5416 4.41181 45.399C2.5096 42.2878 1.20341 38.6451 0.493225 34.4711C-0.1956 30.4225 -0.162929 26.5801 0.591237 22.9437C1.35074 19.3388 2.78112 16.0627 4.88236 13.1153C6.98895 10.1994 9.72964 7.73234 13.1044 5.71425C16.4792 3.69616 20.4402 2.26541 24.9873 1.42198L28.8135 0.712262C33.3606 -0.131168 37.5346 -0.225533 41.3355 0.429167C45.1695 1.11011 48.5563 2.44056 51.4959 4.42051C54.4632 6.39532 56.898 8.93834 58.8002 12.0496C60.7077 15.1922 62.0059 18.7878 62.6948 22.8363C63.4049 27.0104 63.3803 30.8999 62.6208 34.5049C61.8666 38.1412 60.4197 41.4042 58.2801 44.2939C56.1735 47.2099 53.4274 49.6455 50.042 51.6008C46.6896 53.5824 42.7398 54.9949 38.1927 55.8383ZM32.8367 47.5565L36.7461 46.8314C40.3505 46.1628 43.4669 45.1477 46.0953 43.786C48.7291 42.4557 50.8525 40.8155 52.4656 38.8652C54.0786 36.9149 55.1728 34.6885 55.7481 32.1861C56.3287 29.715 56.3707 27.0202 55.8741 24.1015C55.3935 21.2769 54.4731 18.8091 53.1129 16.6981C51.7581 14.6184 49.9991 12.9375 47.836 11.6552C45.6783 10.4043 43.1384 9.59667 40.2163 9.2322C37.2942 8.86773 34.0309 9.01979 30.4265 9.68836L26.5171 10.4135C22.885 11.0872 19.7435 12.1232 17.0927 13.5213C14.4695 14.9144 12.3403 16.6043 10.7048 18.5911C9.10246 20.6042 8.00829 22.8306 7.42234 25.2702C6.84172 27.7413 6.7917 30.3891 7.27228 33.2136C7.77421 36.1637 8.70529 38.6943 10.0655 40.8053C11.4257 42.9164 13.182 44.5816 15.3344 45.8011C17.5198 47.0468 20.0683 47.8205 22.9797 48.1222C25.9189 48.4188 29.2045 48.2302 32.8367 47.5565Z" fill="black"/>
<path d="M61.6514 88.7732L18.0679 104.008L15.3815 95.6294L58.965 80.3947L61.6514 88.7732ZM66.8943 105.125L60.8522 107.237L47.7812 66.4705L53.8233 64.3584L66.8943 105.125Z" fill="black"/>
<path d="M57.6655 145.376L53.7629 136.931L58.1554 134.718L61.7639 142.527C62.7706 144.706 63.8121 146.309 64.8885 147.336C65.9906 148.35 67.1154 148.9 68.2628 148.985C69.4103 149.069 70.5877 148.808 71.795 148.199C72.8739 147.656 73.7447 146.833 74.4075 145.732C75.1091 144.646 75.4481 143.29 75.4244 141.662C75.4264 140.022 74.911 138.084 73.8781 135.849C73.0414 134.038 71.9877 132.546 70.717 131.372C69.4721 130.185 68.146 129.406 66.7389 129.034C65.3706 128.676 64.0699 128.808 62.8369 129.43L59.2088 121.578C61.7519 120.297 64.3014 119.989 66.8574 120.655C69.4521 121.336 71.8649 122.754 74.0956 124.909C76.3395 127.092 78.1935 129.768 79.6578 132.937C80.8868 135.597 81.7153 138.109 82.1433 140.475C82.6102 142.856 82.6697 145.041 82.3221 147.029C82.0001 149.005 81.2578 150.757 80.0953 152.285C78.9715 153.827 77.4206 155.097 75.4427 156.093C74.0299 156.805 72.5241 157.11 70.9255 157.009C69.3269 156.907 67.7192 156.409 66.1025 155.514C64.5114 154.607 62.9886 153.298 61.5339 151.59C60.0924 149.909 58.8029 147.838 57.6655 145.376ZM56.46 135.572L60.3627 144.018C61.6308 146.762 62.5046 149.304 62.984 151.644C63.4892 153.97 63.6062 156.074 63.3351 157.955C63.0641 159.835 62.4113 161.472 61.3767 162.865C60.3809 164.274 59.0096 165.418 57.2628 166.298C55.3106 167.281 53.3483 167.729 51.3761 167.642C49.4426 167.569 47.5704 167.012 45.7593 165.971C43.9483 164.931 42.2504 163.449 40.6655 161.527C39.0936 159.633 37.6932 157.356 36.4643 154.696C35.0915 151.725 34.2203 148.607 33.8507 145.34C33.4812 142.073 33.8413 139.049 34.9311 136.267C36.0466 133.473 38.1071 131.319 41.1125 129.805L44.7406 137.656C43.4819 138.29 42.4901 139.331 41.7651 140.777C41.0402 142.224 40.6904 143.9 40.7159 145.805C40.7545 147.739 41.251 149.739 42.2054 151.804C43.2252 154.011 44.3833 155.695 45.6796 156.856C46.976 158.016 48.3079 158.706 49.6753 158.924C51.0558 159.17 52.3497 158.989 53.557 158.381C55.124 157.592 56.2258 156.618 56.8624 155.46C57.4991 154.302 57.7089 152.906 57.4919 151.271C57.3136 149.652 56.7211 147.753 55.7144 145.574L52.106 137.765L56.46 135.572Z" fill="black"/>
<path d="M83.4096 179.38L91.6866 191.796C93.9108 195.132 95.2424 198.342 95.6814 201.426C96.144 204.492 95.8189 207.299 94.7058 209.848C93.6335 212.404 91.9017 214.551 89.5105 216.289C87.7349 217.579 85.8451 218.461 83.8411 218.935C81.8607 219.391 79.8491 219.379 77.8061 218.898C75.7802 218.442 73.7905 217.487 71.8373 216.033C69.9247 214.588 68.1364 212.617 66.4725 210.121L54.7574 192.549L93.1822 164.622L97.8937 171.689L64.8669 195.693L71.8705 206.198C73.2287 208.236 74.6587 209.616 76.1602 210.339C77.6617 211.063 79.1353 211.296 80.5809 211.04C82.0265 210.783 83.3412 210.224 84.525 209.364C85.685 208.521 86.6432 207.428 87.3994 206.084C88.1556 204.74 88.4931 203.191 88.4121 201.435C88.3547 199.662 87.6469 197.757 86.2887 195.719L78.0117 183.304L83.4096 179.38ZM124.991 212.336L86.5665 240.262L81.855 233.195L120.28 205.268L124.991 212.336Z" fill="black"/>
<path d="M133.721 263.896L122.813 252.249L127.393 247.444L136.304 256.959C138.066 258.84 139.709 260.222 141.232 261.106C142.775 262.012 144.2 262.419 145.505 262.328C146.81 262.236 147.985 261.657 149.03 260.589C149.846 259.757 150.383 258.845 150.641 257.854C150.94 256.863 150.951 255.805 150.672 254.677C150.414 253.528 149.877 252.322 149.062 251.058C148.287 249.795 147.235 248.452 145.903 247.03L138.62 239.254L109.389 269.099L103.704 263.029L137.64 228.381L150.608 242.227C152.718 244.48 154.424 246.695 155.728 248.873C157.052 251.073 157.921 253.202 158.336 255.261C158.791 257.32 158.751 259.286 158.216 261.16C157.68 263.033 156.617 264.781 155.028 266.404C154.004 267.45 152.826 268.224 151.497 268.726C150.167 269.228 148.747 269.415 147.237 269.288C145.728 269.16 144.159 268.708 142.531 267.931C140.924 267.133 139.3 265.988 137.659 264.498L133.721 263.896ZM118.792 279.139L105.825 265.293L113.356 263.508L123.497 274.336C125.074 276.02 126.584 277.217 128.026 277.927C129.489 278.616 130.853 278.849 132.118 278.628C133.424 278.406 134.61 277.751 135.677 276.663C136.743 275.574 137.386 274.361 137.606 273.024C137.868 271.687 137.675 270.258 137.027 268.737C136.401 267.194 135.299 265.581 133.721 263.896L125.087 254.677L129.79 250.003L140.576 261.519L140.878 265.511C142.555 267.607 143.642 269.728 144.138 271.874C144.635 274.021 144.615 276.052 144.078 277.969C143.563 279.864 142.615 281.517 141.235 282.926C139.646 284.548 137.948 285.661 136.141 286.265C134.355 286.891 132.501 287.029 130.579 286.681C128.679 286.311 126.73 285.497 124.735 284.24C122.76 282.961 120.779 281.261 118.792 279.139Z" fill="black"/>
<path d="M171.672 287.755L183.051 296.426C186.109 298.757 188.286 301.297 189.582 304.049C190.896 306.776 191.39 309.549 191.065 312.369C190.781 315.181 189.755 317.851 187.989 320.377C186.677 322.254 185.141 323.786 183.38 324.975C181.637 326.139 179.729 326.871 177.659 327.172C175.611 327.491 173.456 327.324 171.192 326.673C168.97 326.014 166.715 324.813 164.427 323.07L148.321 310.797L176.704 270.193L183.181 275.129L158.786 310.029L168.414 317.366C170.282 318.789 172.029 319.565 173.656 319.693C175.284 319.821 176.745 319.497 178.04 318.72C179.334 317.942 180.419 316.928 181.293 315.677C182.15 314.452 182.744 313.064 183.076 311.515C183.408 309.965 183.285 308.376 182.706 306.746C182.145 305.092 180.931 303.553 179.064 302.13L167.685 293.459L171.672 287.755ZM220.434 303.518L192.052 344.122L185.574 339.186L213.957 298.582L220.434 303.518Z" fill="black"/>
<path d="M285.538 362.659L282.961 369.227L260.4 359.575L262.977 353.007L285.538 362.659ZM272.573 333.131L253.983 380.505L246.686 377.383L265.276 330.009L272.573 333.131ZM299.513 344.656L280.923 392.03L273.586 388.891L292.176 341.517L299.513 344.656Z" fill="black"/>
<path d="M333.893 399.917L340.119 374.166C340.596 372.193 340.654 370.389 340.293 368.753C339.966 367.093 339.202 365.678 338 364.509C336.798 363.34 335.171 362.485 333.118 361.944C331.202 361.439 329.43 361.365 327.801 361.722C326.199 362.087 324.842 362.762 323.73 363.748C322.646 364.741 321.936 365.93 321.601 367.317L314.006 365.316C314.438 363.528 315.277 361.864 316.523 360.323C317.769 358.783 319.33 357.506 321.205 356.492C323.115 355.455 325.252 354.805 327.615 354.543C330.013 354.257 332.553 354.467 335.235 355.174C338.465 356.025 341.162 357.392 343.327 359.274C345.519 361.163 347.011 363.54 347.803 366.405C348.63 369.246 348.593 372.531 347.691 376.26L342.058 399.561C341.655 401.226 341.35 403.03 341.141 404.975C340.961 406.928 340.966 408.65 341.158 410.143L340.979 410.883L333.057 408.795C332.912 407.708 332.928 406.318 333.104 404.627C333.287 402.905 333.55 401.335 333.893 399.917ZM340.472 378.488L339.1 384.52L331.424 382.496C329.262 381.927 327.284 381.618 325.49 381.572C323.704 381.494 322.143 381.689 320.807 382.157C319.472 382.625 318.361 383.365 317.476 384.377C316.598 385.359 315.973 386.62 315.6 388.161C315.22 389.733 315.188 391.249 315.505 392.71C315.821 394.17 316.516 395.452 317.588 396.554C318.696 397.633 320.18 398.417 322.041 398.908C324.367 399.521 326.554 399.507 328.601 398.867C330.648 398.226 332.386 397.241 333.813 395.913C335.268 394.591 336.219 393.186 336.666 391.698L338.914 396.667C338.41 397.911 337.543 399.207 336.315 400.556C335.087 401.904 333.586 403.115 331.812 404.188C330.074 405.238 328.117 405.985 325.943 406.428C323.804 406.848 321.53 406.74 319.122 406.105C316.111 405.312 313.631 403.953 311.68 402.029C309.756 400.112 308.433 397.878 307.711 395.327C307.023 392.753 307.015 390.078 307.685 387.304C308.334 384.623 309.369 382.388 310.791 380.599C312.221 378.779 313.976 377.422 316.055 376.527C318.142 375.602 320.503 375.11 323.137 375.05C325.772 374.99 328.608 375.361 331.646 376.162L340.472 378.488Z" fill="black"/>
<path d="M371.237 365.615L379.012 366.26L375.631 410.688L392.274 412.068L395.654 367.641L403.471 368.289L400.091 412.717L416.691 414.094L420.072 369.666L427.847 370.311L423.914 422L367.304 417.304L371.237 365.615Z" fill="black"/>
<path d="M461.208 406.731L478.886 367.095L486.696 366.354L491.189 417.983L483.378 418.724L480.102 381.076L462.424 420.712L454.698 421.445L450.205 369.815L457.931 369.082L461.208 406.731Z" fill="black"/>
<path d="M511.638 361.791L525.453 377.763L531.303 357.059L540.249 354.906L531.136 383.252L551.81 405.116L542.987 407.239L528.513 390.838L522.374 412.199L513.51 414.332L522.891 385.236L502.857 363.904L511.638 361.791Z" fill="black"/>
<path d="M591.749 335.335L612.312 381.64L605.139 385.113L584.575 338.807L591.749 335.335ZM619.279 322.006L611.17 358.17L601.128 363.032L596.963 356.625L605.184 352.645L610.555 326.23L619.279 322.006ZM632.126 372.048L607.381 358.549L609.449 350.58L641.238 367.636L632.126 372.048Z" fill="black"/>
<path d="M658.426 296.548L662.139 302.545L643.184 315.339L639.471 309.341L658.426 296.548ZM664.334 292.561L690.592 334.975L683.887 339.5L657.629 297.086L664.334 292.561ZM637.84 310.442L644.581 305.892L656.235 327.039C658.023 330.315 659.476 333.299 660.594 335.99C661.72 338.639 662.491 341.046 662.907 343.211C663.346 345.36 663.423 347.309 663.136 349.059C662.857 350.767 662.214 352.33 661.209 353.75C660.188 355.143 658.807 356.427 657.067 357.601L654.965 359.02L651.01 352.631L652.387 351.534C653.377 350.755 654.097 349.898 654.547 348.965C655.021 348.015 655.245 346.938 655.218 345.733C655.175 344.502 654.882 343.088 654.339 341.491C653.82 339.877 653.054 338.06 652.042 336.038C651.055 334 649.824 331.681 648.352 329.08L637.84 310.442Z" fill="black"/>
<path d="M708.684 302.094L702.193 259.723L708.312 254.15L739.726 291.751L733.607 297.324L710.7 269.905L717.191 312.276L711.138 317.79L679.724 280.188L685.777 274.675L708.684 302.094Z" fill="black"/>
<path d="M770.437 257.523C768.258 260.15 765.863 262.155 763.254 263.537C760.641 264.877 757.929 265.618 755.117 265.76C752.324 265.879 749.534 265.39 746.748 264.294C743.962 263.198 741.315 261.517 738.808 259.25L737.422 257.996C734.519 255.371 732.311 252.581 730.798 249.626C729.263 246.651 728.35 243.668 728.058 240.679C727.767 237.689 728.034 234.839 728.859 232.127C729.685 229.415 730.975 227.001 732.729 224.886C734.966 222.189 737.335 220.263 739.834 219.106C742.353 217.925 744.925 217.424 747.549 217.6C750.152 217.757 752.771 218.498 755.406 219.823C758.018 221.128 760.578 222.914 763.085 225.181L765.823 227.658L742.452 255.832L737.47 251.327L755.491 229.603L755.029 229.186C753.368 227.847 751.54 226.803 749.543 226.055C747.565 225.284 745.562 225.1 743.534 225.503C741.506 225.907 739.576 227.212 737.744 229.421C736.529 230.885 735.707 232.502 735.279 234.271C734.829 236.02 734.809 237.854 735.22 239.771C735.631 241.689 736.458 243.638 737.703 245.617C738.947 247.597 740.647 249.562 742.803 251.511L744.188 252.764C745.881 254.295 747.678 255.493 749.579 256.358C751.477 257.179 753.382 257.62 755.294 257.681C757.225 257.719 759.079 257.341 760.854 256.546C762.649 255.728 764.279 254.436 765.745 252.669C767.635 250.391 768.795 248.064 769.227 245.688C769.659 243.311 769.629 240.864 769.139 238.346L775.315 237.096C775.806 238.964 776.058 241.003 776.072 243.213C776.087 245.423 775.662 247.744 774.798 250.177C773.954 252.587 772.5 255.036 770.437 257.523Z" fill="black"/>
<path d="M790.024 179.759L795.46 183.43L781.573 205.848L776.137 202.177L790.024 179.759ZM760.089 189.171L799.298 215.65L794.806 222.901L755.598 196.422L760.089 189.171ZM776.671 162.403L815.879 188.882L811.364 196.172L772.155 169.693L776.671 162.403Z" fill="black"/>
<path d="M793.331 127.25L835.185 147.828L831.606 155.763L789.752 135.185L793.331 127.25ZM800.315 111.764L806.117 114.617L788.705 153.225L782.903 150.372L800.315 111.764Z" fill="black"/>
<path d="M826.443 109.083L825.512 108.776C822.355 107.734 819.583 106.254 817.196 104.337C814.782 102.41 812.869 100.15 811.458 97.5568C810.02 94.9548 809.164 92.0961 808.89 88.9807C808.589 85.8563 808.956 82.5865 809.989 79.1711C811.032 75.7254 812.536 72.8144 814.502 70.4378C816.45 68.0221 818.728 66.1809 821.337 64.9141C823.928 63.6083 826.742 62.8911 829.778 62.7625C832.787 62.6251 835.87 63.0771 839.027 64.1186L839.957 64.4258C843.114 65.4673 845.886 66.947 848.273 68.8648C850.66 70.7827 852.568 73.0577 853.997 75.69C855.409 78.2831 856.265 81.1418 856.565 84.2661C856.848 87.3513 856.468 90.6168 855.426 94.0624C854.383 97.508 852.892 100.424 850.954 102.809C848.988 105.186 846.71 107.027 844.118 108.333C841.509 109.599 838.7 110.301 835.691 110.439C832.682 110.576 829.599 110.124 826.443 109.083ZM828.05 100.388L828.981 100.695C831.166 101.416 833.317 101.81 835.434 101.877C837.523 101.935 839.484 101.634 841.315 100.975C843.156 100.286 844.773 99.2075 846.167 97.7393C847.534 96.2622 848.57 94.36 849.274 92.0327C849.969 89.7357 850.159 87.5877 849.844 85.589C849.511 83.5511 848.777 81.713 847.64 80.0749C846.504 78.4367 845.065 77.0145 843.323 75.8082C841.563 74.5628 839.591 73.5795 837.405 72.8585L836.475 72.5514C834.316 71.8392 832.188 71.4693 830.089 71.4418C827.973 71.3751 825.994 71.6864 824.153 72.3755C822.295 73.0256 820.669 74.0847 819.275 75.5528C817.89 76.9908 816.845 78.8734 816.141 81.2007C815.446 83.4978 815.265 85.6653 815.597 87.7032C815.939 89.7108 816.688 91.5533 817.842 93.2306C818.978 94.8687 820.431 96.2954 822.2 97.5106C823.941 98.7169 825.891 99.6762 828.05 100.388Z" fill="black"/>
<path d="M849.615 23.0374L846.982 39.794L840.801 38.8321L842.951 25.1436C843.376 22.4373 843.494 20.1469 843.303 18.2724C843.118 16.3664 842.625 14.8762 841.824 13.8018C841.022 12.7275 839.927 12.0713 838.538 11.8334C837.455 11.6479 836.468 11.7536 835.579 12.1505C834.666 12.5113 833.865 13.1656 833.174 14.1137C832.455 15.057 831.849 16.2781 831.357 17.7772C830.842 19.2401 830.424 20.9943 830.102 23.0397L828.345 34.2265L867.18 40.8785L865.808 49.6108L820.723 41.8882L823.852 21.9691C824.361 18.7279 825.069 15.8599 825.974 13.3652C826.885 10.839 827.997 8.75139 829.312 7.10231C830.603 5.41701 832.104 4.21983 833.813 3.51079C835.522 2.80175 837.432 2.62804 839.543 2.98967C840.904 3.22282 842.146 3.75876 843.27 4.59748C844.393 5.4362 845.331 6.55007 846.082 7.93909C846.834 9.32812 847.374 10.9718 847.704 12.8702C848.005 14.7637 848.057 16.8891 847.857 19.2463L849.615 23.0374ZM869.449 26.4348L866.32 46.3539L860.752 40.9407L863.199 25.3642C863.58 22.9411 863.632 20.882 863.357 19.1867C863.053 17.4867 862.463 16.1577 861.587 15.1997C860.688 14.2055 859.53 13.587 858.113 13.3444C856.696 13.1017 855.423 13.3038 854.295 13.9507C853.143 14.5613 852.178 15.6238 851.398 17.1383C850.59 18.648 849.996 20.6144 849.615 23.0374L847.531 36.3011L841.379 35.1503L843.982 18.5825L846.812 15.8197C847.447 13.0524 848.431 10.7812 849.766 9.00627C851.1 7.23132 852.638 5.97597 854.38 5.24022C856.094 4.49971 857.867 4.28648 859.701 4.60052C861.812 4.96215 863.601 5.73723 865.069 6.92578C866.542 8.08285 867.686 9.60381 868.503 11.4886C869.292 13.3687 869.773 15.5679 869.948 18.086C870.095 20.5995 869.929 23.3824 869.449 26.4348Z" fill="black"/>
</svg>
