<!-- icon666.com - MILLIONS vector ICONS FREE --><svg id="Capa_1" enable-background="new 0 0 512 512" viewBox="0 0 512 512" xmlns="http://www.w3.org/2000/svg"><g><g><path d="m453.946 296.618v-247.19c0-4.223-2.75-7.966-6.791-9.192-41.459-12.566-124.548-25.145-166.179-30.994-16.573-2.329-33.38-2.329-49.954 0-41.63 5.849-124.718 18.428-166.177 30.994-4.042 1.225-6.791 4.968-6.791 9.192v247.19s-10.33 162.001 191.785 207.211c4.052.906 8.269.906 12.322 0 202.115-45.211 191.785-207.211 191.785-207.211z" fill="#7acaa6"></path></g><g><path d="m262.157 503.827c-4.048.91-8.266.91-12.314 0-1.299-.29-2.599-.59-3.878-.889 198.19-47.066 187.995-209.404 187.995-209.404v-250.854c0-2.589-1.009-4.997-2.709-6.777 5.767 1.429 11.114 2.889 15.902 4.338 4.048 1.219 6.797 4.967 6.797 9.185v247.195s10.325 161.999-191.793 207.206z" fill="#57be92"></path></g><g><path d="m416.933 292.561v-208.045c0-3.434-2.236-6.477-5.522-7.473-33.706-10.216-101.258-20.443-135.105-25.199-13.474-1.893-27.139-1.893-40.613 0-33.846 4.756-101.398 14.983-135.105 25.199-3.286.996-5.522 4.039-5.522 7.473v208.045s-8.398 131.709 155.924 168.466c3.295.737 6.723.737 10.018 0 164.323-36.757 155.925-168.466 155.925-168.466z" fill="#aedec8"></path></g><g><path d="m261.007 461.028c-3.288.74-6.727.74-10.015 0-1.709-.38-3.398-.77-5.057-1.179 159.24-39.09 151.004-170.964 151.004-170.964v-212.562c0-1.189-.26-2.339-.74-3.368 5.567 1.349 10.695 2.719 15.212 4.088 3.288.999 5.517 4.038 5.517 7.476v208.045c0-.001 8.406 131.703-155.921 168.464z" fill="#98d5b9"></path></g><g><path d="m333.257 260.486c-.291-3.138.612-6.279 2.555-8.761.011-.014.023-.029.034-.043 19.919-25.413 33.217-53.519 25.516-85.986-1.234-5.202-2.834-10.323-4.853-15.275-8.782-21.533-27.31-37.343-51.367-37.193-11.635.072-22.369 3.897-31.061 10.319-10.944 8.086-25.874 8.179-36.918.23-8.772-6.314-19.552-10.005-31.188-9.932-24.056.15-42.387 16.189-50.9 37.829-1.958 4.977-3.494 10.117-4.663 15.334-7.296 32.56 6.35 60.499 26.583 85.662.011.014.023.029.034.043 1.974 2.457 2.916 5.587 2.663 8.728-.974 12.129-1.712 24.323-3.307 36.331-1.808 13.607-2.473 28.155 2.337 41.255 4.613 12.563 21.193 34.195 36.838 24.706 12.456-7.554 8.73-28.258 8.59-40.308-.09-7.768.878-15.139 3.056-21.793 9.356-28.592 49.326-28.844 59.04-.371 2.261 6.628 3.322 13.987 3.328 21.757.01 12.052-3.459 32.799 9.09 40.198 15.762 9.293 32.072-12.543 36.528-25.162 4.647-13.159 3.801-27.698 1.824-41.281-1.745-11.987-2.634-24.171-3.759-36.287z" fill="#eef5f6"></path></g><g><path d="m337.019 296.771c1.979 13.583 2.819 28.126-1.829 41.279-4.458 12.624-20.76 34.463-36.522 25.167-1.029-.61-1.959-1.309-2.789-2.089 7.936-5.707 14.313-15.882 16.851-23.078 4.648-13.153 3.798-27.696 1.829-41.279-1.749-11.984-2.639-24.168-3.758-36.282-.3-3.138.61-6.287 2.549-8.766.01-.01.02-.03.04-.04 19.92-25.417 33.213-53.523 25.507-85.987-1.229-5.207-2.829-10.325-4.848-15.272-7.326-17.961-21.429-31.944-39.86-35.992 3.528-.77 7.196-1.179 10.954-1.209 24.058-.15 42.578 15.662 51.364 37.201 2.019 4.948 3.618 10.065 4.858 15.272 7.696 32.464-5.597 60.569-25.517 85.987-.02.01-.03.03-.04.04-1.939 2.479-2.849 5.627-2.549 8.766 1.121 12.115 2.011 24.298 3.76 36.282z" fill="#deecf1"></path></g><g><path d="m461.443 296.404v-246.976c0-7.593-4.868-14.17-12.113-16.366-41.411-12.55-122.601-24.962-167.31-31.243-17.264-2.426-34.773-2.426-52.039 0-44.712 6.281-125.904 18.693-167.31 31.243-7.246 2.196-12.114 8.773-12.114 16.366v246.976c-.213 3.958-1.727 44.197 20.868 90.172 13.67 27.814 33.369 51.938 58.552 71.7 31.248 24.523 71.025 42.31 118.224 52.868 2.552.57 5.174.856 7.798.856s5.247-.286 7.797-.856c47.201-10.558 86.979-28.345 118.226-52.868 25.182-19.762 44.882-43.886 58.551-71.7 22.595-45.972 21.083-86.209 20.87-90.172zm-34.324 83.559c-12.668 25.777-30.956 48.157-54.352 66.518-29.476 23.133-67.239 39.965-112.243 50.031-2.958.664-6.087.663-9.049 0-44.802-10.021-82.434-26.751-111.85-49.724-23.384-18.262-41.694-40.525-54.421-66.171-21.789-43.906-19.692-83.144-19.67-83.523.011-.159.016-.318.016-.477v-247.189c0-.925.604-1.756 1.47-2.018 40.438-12.258 120.764-24.524 165.047-30.745 7.94-1.116 15.937-1.673 23.933-1.673 7.997 0 15.993.557 23.934 1.673 44.28 6.221 124.604 18.488 165.047 30.745.865.262 1.469 1.092 1.469 2.018v247.19c0 .159.005.318.016.477.024.384 2.206 39.015-19.347 82.868z"></path><path d="m424.429 84.516c0-6.793-4.357-12.68-10.843-14.647-14.496-4.393-36.458-9.208-65.279-14.31-4.073-.73-7.967 1.998-8.688 6.074-.722 4.077 1.998 7.967 6.074 8.688 28.237 4.999 49.616 9.674 63.542 13.896.118.035.201.158.201.299v208.045c0 .159.005.318.016.477.02.309 1.771 31.344-15.588 66.666-10.207 20.767-24.943 38.799-43.797 53.596-23.798 18.677-54.312 32.273-90.694 40.411-2.208.494-4.54.494-6.746 0-36.183-8.094-66.566-21.587-90.306-40.106-18.842-14.699-33.6-32.614-43.865-53.25-17.595-35.375-15.927-67.016-15.91-67.317.011-.159.016-.318.016-.477v-208.045c0-.138.085-.264.2-.299 32.776-9.935 98.008-19.896 133.974-24.949 12.783-1.796 25.745-1.796 38.527 0 12.472 1.752 24.812 3.583 36.674 5.443 4.099.651 7.926-2.154 8.566-6.245.641-4.09-2.154-7.925-6.245-8.566-11.94-1.872-24.359-3.715-36.909-5.478-14.167-1.991-28.533-1.991-42.7 0-36.395 5.113-102.491 15.219-136.237 25.448-6.485 1.967-10.842 7.852-10.842 14.646v207.834c-.183 3.531-1.327 36.454 17.109 73.967 11.207 22.804 27.356 42.579 47.996 58.778 25.571 20.067 58.098 34.617 96.679 43.248 2.174.486 4.409.729 6.645.729s4.471-.243 6.646-.729c38.58-8.63 71.107-23.181 96.678-43.248 20.64-16.199 36.789-35.974 47.996-58.778 18.436-37.512 17.293-70.435 17.11-73.967z"></path><path d="m341.432 267.698c-.233-2.635-.467-5.272-.711-7.905-.117-1.255.236-2.479.944-3.384.008-.011.018-.022.027-.035.019-.022.036-.044.054-.066 25.565-32.617 34.115-61.959 26.909-92.342-1.359-5.728-3.111-11.237-5.206-16.375-10.542-25.852-32.734-41.861-57.983-41.861-.122 0-.248 0-.371.001-12.875.08-25.141 4.156-35.469 11.787-8.36 6.177-19.647 6.249-28.083.175-10.318-7.427-22.491-11.346-35.227-11.346-.128 0-.258 0-.386.001-25.399.158-47.558 16.474-57.829 42.581-2.032 5.164-3.715 10.696-5.002 16.44-8.97 40.031 11.716 71.678 28.056 91.999.016.02.032.04.049.06.757.954 1.12 2.164 1.019 3.414-.212 2.631-.412 5.266-.612 7.901-.184 2.408-.366 4.817-.558 7.225-.328 4.127 2.75 7.738 6.878 8.067 4.138.317 7.738-2.752 8.067-6.878.405-5.076.759-10.032 1.168-15.115.41-5.089-1.114-10.07-4.281-14.012-.018-.022-.042-.052-.066-.081-22.865-28.447-30.839-53.648-25.091-79.302 1.12-4.994 2.574-9.78 4.325-14.229 8.1-20.592 24.538-32.958 43.971-33.078.097-.001.193-.001.29-.001 9.575 0 18.722 2.944 26.471 8.521 13.746 9.893 32.129 9.78 45.752-.284 7.758-5.732 16.974-8.793 26.654-8.853.096-.001.19-.001.286-.001 19.309 0 35.778 12.141 44.093 32.529 1.805 4.426 3.32 9.196 4.501 14.174 6.068 25.585-1.593 50.884-24.11 79.617-.018.022-.034.043-.049.062-3.127 3.993-4.588 8.993-4.116 14.075.242 2.611.473 5.226.705 7.84.837 9.455 1.702 19.232 3.1 28.833 1.609 11.056 2.895 25.332-1.475 37.706-2.867 8.12-14.696 27.67-25.656 21.198-6.57-3.879-6.032-16.552-5.6-26.735.105-2.483.205-4.829.203-7.01-.008-8.808-1.263-16.941-3.729-24.171-5.457-15.994-19.781-26.289-36.539-26.289-.085 0-.171 0-.256.001-16.868.105-31.182 10.605-36.465 26.749-2.377 7.262-3.529 15.408-3.427 24.211.025 2.182.154 4.526.291 7.008.558 10.178 1.253 22.846-5.273 26.803-2.333 1.417-4.578 1.625-7.286.677-8.021-2.809-15.971-14.325-18.627-21.557-2.518-6.86-3.547-14.917-3.146-24.632.172-4.137-3.043-7.628-7.18-7.799-4.15-.194-7.629 3.043-7.799 7.18-.485 11.722.84 21.672 4.052 30.418 3.526 9.606 13.825 25.665 27.745 30.539 2.707.948 5.412 1.42 8.072 1.42 4.149 0 8.187-1.148 11.944-3.427 16.089-9.761 12.382-31.027 12.199-46.805-.083-7.158.82-13.677 2.684-19.374 3.937-12.028 14.105-16.369 22.31-16.419.05-.001.099-.001.148-.001 8.177 0 18.301 4.234 22.364 16.138 2.851 8.355 3.107 16.98 2.737 25.705-.538 12.681-1.351 31.844 12.968 40.288 6.213 3.661 13.141 4.27 20.042 1.758 13.857-5.048 23.956-21.234 27.362-30.883 5.461-15.465 4.03-32.095 2.174-44.856-1.341-9.185-2.187-18.747-3.006-27.995z"></path></g></g></svg>