<!-- icon666.com - MILLIONS vector ICONS FREE --><svg id="Слой_1" viewBox="0 0 512 512" xmlns="http://www.w3.org/2000/svg" data-name="Слой 1"><path d="m352.7 10.92c-50.03 11.8-105.7 5.16-113.7 57.39-12.14 79.29 48.91 94.05 48.91 94.05s-32-64.9 20.69-84.65c43.16-16.19 103.4-5.82 149.13-66.92" fill="#96b9bc" style="fill: rgb(234, 245, 246);"></path><path d="m462.67 4.19a8.24 8.24 0 0 0 -11.54 1.66c-30.7 41-67.74 47.67-103.56 54.08-14.84 2.66-28.86 5.17-41.9 10.06-15.58 5.85-26.23 15.76-31.67 29.48-6.32 16-4 33.84-.55 47.06-14.8-10.08-33.23-32-26.34-77 2.28-14.87 8.86-24.1 19.26-30.34-4.58-3.16-9-6.52-13.9-9.23a5.52 5.52 0 0 1 -.92-.64c-10.47 8.18-18 20-20.74 37.72-6.79 44.39 8.35 70.11 22.25 83.87a77.16 77.16 0 0 0 32.87 19.45 8.25 8.25 0 0 0 9.34-11.65c-.15-.31-14.84-30.81-5.92-53.24 3.7-9.31 10.93-15.87 22.1-20.05 11.64-4.36 24.94-6.75 39-9.27 37.18-6.63 79.28-14.15 113.88-60.42a8.24 8.24 0 0 0 -1.66-11.54z" fill="#5e1235" style="fill: rgb(135, 164, 127);"></path><path d="m9.12 503.76v-155.55a32.14 32.14 0 0 1 32.14-32.14s68.32 18.33 214 18.33 215.47-18.33 215.47-18.33a32.14 32.14 0 0 1 32.14 32.14v155.55" fill="#fc8a70"></path><path d="m502.88 512a8.24 8.24 0 0 1 -8.24-8.24v-155.55a23.93 23.93 0 0 0 -22.95-23.88c-9.91 2.44-79.6 18.31-216.42 18.31-136.63 0-205.08-15.83-215-18.31a23.93 23.93 0 0 0 -22.93 23.88v155.55a8.24 8.24 0 0 1 -16.49 0v-155.55a40.43 40.43 0 0 1 40.39-40.39 8.25 8.25 0 0 1 2.14.28c.67.18 69.29 18.05 211.87 18.05s212.75-17.88 213.4-18.06a8.29 8.29 0 0 1 2.09-.27 40.43 40.43 0 0 1 40.39 40.39v155.55a8.24 8.24 0 0 1 -8.25 8.24z" fill="#5e1235" style="fill: rgb(135, 164, 127);"></path><path d="m283.05 320.57s14 109.79 38.44 107.56-14.57-162.55 34.18-167.13c48.78-4.3 40.72 160.31 65.14 158.09s17-112.61 17-112.61c-8-72.67 24.92-75.67 19.23-138.24-3.92-43.1-34.62-49.77-53.36-49.74a57.56 57.56 0 0 0 -21.45 4.2 135.22 135.22 0 0 1 -77.7 7.07l-5.86-1.2a15.82 15.82 0 0 0 -3.37-.32c-10.48.13-61.23 3.67-56.13 59.82 5.72 62.57 38.65 59.57 43.88 132.5z" fill="#fff"></path><path d="m320.6 436.42c-14.65 0-25.65-18.44-35.51-59.3-6.58-27.3-10.07-54.37-10.22-55.51q0-.23 0-.45c-2.6-36.25-12-52.06-22-68.81-9.33-15.67-19-31.87-21.86-63.53-1.83-20.15 2.72-36.45 13.52-48.44 16.69-18.51 43-20.27 50.71-20.37a23.87 23.87 0 0 1 5.13.49l5.86 1.2a126.61 126.61 0 0 0 73-6.64 65.51 65.51 0 0 1 24.52-4.8h.12c35.75 0 58.15 20.86 61.46 57.24 2.88 31.66-3.69 49.34-10 66.44-6.78 18.27-13.19 35.52-9.21 71.65q0 .18 0 .35c.08 1.15 1.87 28.37.66 56.38-1.88 43.54-9.64 63.58-25.17 65-13.62 1.23-18.6-16.44-20.48-23.1-3.19-11.33-5.72-26.75-8.39-43.09-6.11-37.33-15.38-93.76-36.29-91.9s-19.25 59-18.21 96.79c.45 16.54.88 32.15-.12 43.86-.59 6.9-2.15 25.22-15.83 26.47-.6.04-1.15.07-1.69.07zm-29.34-116.68c.33 2.53 3.61 27 9.36 51.41 8.69 36.91 16.34 46 19.09 48.13.73-2 1.81-6.34 2.25-15.77.48-10.23.12-23.25-.26-37-.64-23.25-1.36-49.6 1.77-70.49 4.06-27.08 14.63-41.6 31.43-43.18s29.93 10.87 39 36.7c7 20 11.28 46 15 69 2.24 13.65 4.35 26.54 6.75 36.51 2.23 9.25 4.13 13.36 5.22 15.12 2.22-2.58 8-12.88 9.42-50.84.93-25.16-.58-49.79-.72-52-4.37-39.89 3.35-60.67 10.16-79 6-16.08 11.61-31.27 9.07-59.2s-17.7-42.24-45-42.24h-.1a49.08 49.08 0 0 0 -18.38 3.6 143 143 0 0 1 -82.44 7.5l-5.86-1.2a8 8 0 0 0 -1.62-.15c-6 .08-26.46 1.38-38.67 14.92-7.6 8.44-10.75 20.52-9.35 35.9 2.54 27.93 10.83 41.86 19.61 56.59 10.01 16.67 21.36 35.71 24.27 75.69z" fill="#5e1235" style="fill: rgb(135, 164, 127);"></path><path d="m65.87 391.55s3.31 105.27 27.85 105.27.9-140 49.86-140.12c49 .14 25.34 140.12 49.86 140.12s27.85-105.27 27.85-105.27c-1.39-73.1 31.68-73.1 31.68-135.93 0-43.28-30-52.7-48.63-54.37a57.56 57.56 0 0 0 -21.74 2.24 135.22 135.22 0 0 1 -78 0l-5.73-1.73a15.8 15.8 0 0 0 -3.33-.63c-10.45-.82-61.31-1.89-61.31 54.48-.04 62.84 33.03 62.84 31.64 135.94z" fill="#fff"></path><path d="m193.44 505.06c-13.5 0-17-16.62-18.18-22.08-2.13-10.06-3.19-23.5-4.31-37.73-1.51-19.23-3.23-41-7.92-57.2-6.68-23.07-16-23.1-19.47-23.11s-12.75 0-19.43 23.11c-4.69 16.18-6.4 38-7.92 57.2-1.12 14.23-2.18 27.67-4.31 37.73-1.16 5.46-4.68 22.08-18.18 22.08-9.37 0-16.91-7.32-22.41-21.76-3.54-9.29-6.53-22-8.87-37.92a526 526 0 0 1 -4.81-53.58q0-.21 0-.42c.69-36.33-7.25-52.94-15.66-70.52-7.87-16.45-16-33.46-16-65.25 0-20.23 6-36.05 17.86-47 18.3-16.92 44.69-16.29 52.34-15.69a24.09 24.09 0 0 1 5.07 1l5.73 1.73a126.59 126.59 0 0 0 73.27 0 65.51 65.51 0 0 1 24.83-2.65c35.67 3.2 56.14 26 56.14 62.58 0 31.79-8.14 48.8-16 65.25-8.41 17.58-16.36 34.18-15.66 70.52q0 .21 0 .42a526.13 526.13 0 0 1 -4.81 53.58c-2.35 15.87-5.33 28.63-8.87 37.92-5.52 14.47-13.06 21.79-22.43 21.79zm-119.33-113.58c.09 2.45 1 27.23 4.65 51.61 5.27 35.56 12 43.42 14.24 45.07.81-1.39 2.25-4.84 3.58-13 1.42-8.55 2.27-19.56 3.19-31.16 1.58-20 3.36-42.69 8.52-60.49 6.71-23.18 18.58-35 35.27-35s28.6 11.83 35.31 35c5.15 17.8 6.94 40.48 8.52 60.49.92 11.65 1.78 22.66 3.19 31.23 1.33 8.14 2.78 11.59 3.58 13 2.19-1.65 9-9.53 14.25-45.19 3.59-24.44 4.59-49.11 4.59-51.56-.73-40.09 8.84-60.08 17.28-77.73 7.4-15.47 14.4-30.09 14.4-58.14s-13.84-43.71-41.12-46.16a49.09 49.09 0 0 0 -18.56 1.93 143 143 0 0 1 -82.78 0l-5.73-1.73a7.53 7.53 0 0 0 -1.59-.3c-6-.46-26.48-1-39.87 11.36-8.34 7.71-12.57 19.46-12.57 34.91 0 28 7 42.66 14.4 58.14 8.42 17.64 17.98 37.63 17.25 77.72z" fill="#5e1235" style="fill: rgb(135, 164, 127);"></path><path d="m344.47 8.25c50 13.67 99.11 10.72 105.62 63.67 9.79 79.62-51.67 92.57-51.67 92.57s33.88-63.92-18.18-85.22c-43-17.58-104-6.22-148-70" fill="#96b9bc" style="fill: rgb(234, 245, 246);"></path><path d="m398.43 172.73a8.24 8.24 0 0 1 -7.28-12.1c.15-.29 15.74-30.34 7.48-53-3.42-9.41-10.46-16.18-21.5-20.7-11.79-4.82-25.42-7.4-39.85-10.13-36.92-7-78.76-14.89-111.79-62.79a8.24 8.24 0 1 1 13.57-9.36c29.18 42.32 65.83 49.25 101.28 55.95 15.27 2.89 29.69 5.61 43 11.07 15.4 6.3 25.75 16.52 30.78 30.39 5.85 16.14 3 34-.84 47.06 15.08-9.64 34.16-31 28.61-76.16-4.26-34.68-27.86-41.2-69.19-49.75-9.85-2-20-4.14-30.41-7a8.24 8.24 0 0 1 4.36-15.92c9.87 2.71 19.8 4.71 29.4 6.71 19.58 4 38.08 7.87 52.75 16.5 17.2 10.11 26.79 25.61 29.47 47.41 5.48 44.57-10.42 69.83-24.72 83.17a77.15 77.15 0 0 1 -33.43 18.47 8.25 8.25 0 0 1 -1.69.18z" fill="#5e1235" style="fill: rgb(135, 164, 127);"></path><path d="m258.68 480.85a8.24 8.24 0 0 1 -8.24-8.24v-60.8a8.24 8.24 0 1 1 16.49 0v60.79a8.24 8.24 0 0 1 -8.25 8.25z" fill="#fff"></path></svg>