<!-- icon666.com - MILLIONS vector ICONS FREE --><svg viewBox="0 0 64 64" xmlns="http://www.w3.org/2000/svg"><g id="extraction"><rect fill="#00aeee" height="24" opacity=".5" rx="4" width="24" x="3" y="3"></rect><g fill="#1a4d7e"><path d="m36 57a3 3 0 0 1 -2.91-2.29l-.86-3.52a.21.21 0 0 0 -.4 0l-.86 3.52a3 3 0 0 1 -5.85-.1c-1-4.83-1.11-6.5-2.49-8.16a7 7 0 0 1 7.66-11.08c2.74 1 3.41-.58 6.36-.35a7 7 0 0 1 4.79 11.42c-3.05 3.64-.9 10.56-5.44 10.56zm-1.83-6.29.83 3.52a1 1 0 0 0 2 0c.55-2.66.74-3.64 1-4.91.72-3.47 2.1-3.83 2.76-5.64a5 5 0 0 0 -4.31-6.68c-2.25-.19-3.52 1.41-6.84.24a5 5 0 0 0 -5.46 7.92c1.79 2.17 2 4.43 2.9 9a1 1 0 0 0 1.95 0l.86-3.52a2.2 2.2 0 0 1 4.28.07z"></path><path d="m36 62h-8a18 18 0 0 1 -18-18 1 1 0 0 1 1-1c15.31 0 10.82-.68 13.15 2.18 1.75 2.11 1.92 4.23 2.88 8.93a1 1 0 0 0 2 .12l.86-3.52a2.2 2.2 0 0 1 4.28 0l.83 3.45a1 1 0 0 0 1.53.68c1.07-.67.67-6.43 3.35-9.67 2.27-2.81-2.17-2.17 13.12-2.17a1 1 0 0 1 1 1 18 18 0 0 1 -18 18zm-24-17a16 16 0 0 0 16 15h8a16 16 0 0 0 16-15h-9.68c-.86 1.79-1.83 1.93-2.4 4.7-.24 1.13-.46 2.22-1 4.91a3 3 0 0 1 -3.66 2.3c-2.21-.52-2.3-2.66-3-5.72a.21.21 0 0 0 -.4 0c-.83 3.38-.83 4.56-2.26 5.4a3 3 0 0 1 -4.47-2.07c-.49-2.39-.71-3.5-1-4.82-.57-2.75-1.59-3-2.4-4.7z"></path><path d="m15 34.08a18 18 0 0 1 7.6-9.43c1.13-.7 1.8 1.27 6.67 2.11.47.09.53.35 1 .65a1 1 0 0 1 -.39 1.8 11 11 0 0 0 -8.88 10.79c0 2.7-8-.21-6-5.92zm8.14-7.41a16.2 16.2 0 0 0 -6.26 8.07 3.25 3.25 0 0 0 2.17 4.12 13 13 0 0 1 7.55-10.69 17.66 17.66 0 0 1 -3.46-1.5z"></path><path d="m40.88 26.5c-.7 0-1.93-1.36-5.43-2.12-.69-.15-.63-.67-1.11-1.26a1 1 0 0 1 .46-1.58 8.8 8.8 0 0 0 5.57-5.48l3.92-11.19a4.28 4.28 0 1 1 8.07 2.86l-3.36 9.32c-2.09 5.82-7.12 9.45-8.12 9.45zm-3.79-3.77a18.1 18.1 0 0 1 3.77 1.6 16.07 16.07 0 0 0 6.26-8c3.59-10 4-10.09 3.08-11.4a2.29 2.29 0 0 0 -4 .56l-3.95 11.23a10.76 10.76 0 0 1 -5.16 6.01z"></path><path d="m43 40a11 11 0 0 0 -8.45-10.7 5 5 0 0 1 -5.93-.62 17.75 17.75 0 0 1 -6-2.33c-6.56-4-7.52-9.09-11-18.62a4.28 4.28 0 1 1 8.07-2.86l3.92 11.19a8.78 8.78 0 0 0 5 5.26 5 5 0 0 1 7.74 1.21 18 18 0 0 1 12.65 11.55c2 5.75-6 8.6-6 5.92zm-1.8-9.2a12.89 12.89 0 0 1 3.8 8.06 3.24 3.24 0 0 0 2.17-4.12 16 16 0 0 0 -11.72-10.36c-.69-.15-.63-.67-1.11-1.26a3 3 0 0 0 -4.67 0 1 1 0 0 1 -1.09.32 10.75 10.75 0 0 1 -6.83-6.72l-3.92-11.19a2.29 2.29 0 1 0 -4.31 1.53c3.2 8.88 4.13 14 10.12 17.58 3.58 2.2 5.59 1.8 6.19 2.42a3 3 0 0 0 3.92.37c1.31-.96 5.83 1.75 7.45 3.37z"></path><path d="m33 25a1 1 0 0 1 -2 0 1 1 0 0 1 2 0z"></path></g></g></svg>