<!-- icon666.com - MILLIONS vector ICONS FREE --><svg clip-rule="evenodd" fill-rule="evenodd" image-rendering="optimizeQuality" shape-rendering="geometricPrecision" text-rendering="geometricPrecision" viewBox="0 0 1.70666 1.70666" xmlns="http://www.w3.org/2000/svg"><g id="Layer_x0020_1"><g fill-rule="nonzero"><path d="m1.43327.707492c-.0230394-.0126575-.0422598.0223622-.0192205.035.0370748.0203386.0605984.0587323.0605984.101768v.589142c0 .128248-.105012.23326-.23326.23326h-.776106c-.128252 0-.23326-.105008-.23326-.23326v-.589142c0-.0430157.0237717-.0817717.0608898-.101976.0230354-.0125394.00398425-.0475472-.019063-.035-.049811.0271142-.0818268.0794291-.0818268.136976v.589142c0 .150339.122921.27326.27326.27326h.776106c.150339 0 .27326-.122921.27326-.27326v-.589142c0-.0572559-.0319882-.109713-.081378-.136768z" fill="#0023c4"></path><path d="m.761602 1.40367c.0144409.168909-.0775079.162378-.0778661.162358l-.00000394.00004331c-.00126378-.0000748-.00249213-.00026378-.00367717-.00055906-.323213-.0482283-.332126-.598972-.332083-.662807-.0853661-.130996-.121264-.268972-.113598-.384689.00846457-.12774.0722835-.242138.199417-.274102.0943465-.0237165.192457.00391732.278118.0445787l.00002756-.00006299c.00746063.0033937.0118268.0108031.0117126.0185079v.101843c0 .114705.14.175114.222866.0922402.0236811-.023685.0383858-.0563425.0383858-.0922402v-.10215c0-.0152913.0138701-.0191299.0272677-.0255354l-.00003937-.0000748c.00062205-.00031102.00125591-.00059055.0018937-.00083071.102504-.0451024.190157-.0540236.26074-.0362756.127138.0319685.190953.146358.199417.274102.00766929.115717-.0282283.253693-.113594.384689.00004724.0639724-.00888189.61698-.334134.663154l.00000787.00005118c-.00151575.0002126-.00301575.00025197-.00447638.00012992-.0154134-.00051969-.0879685-.0109291-.0750315-.16237-.00007874-.161343-.027185-.262906-.0618976-.306173-.0210669-.0262559-.0400197-.0260551-.0610787.00016535-.0349449.0435039-.0622953.14537-.062374.306008zm-.0748346.122524c.00570079-.00012992.0448937-.00512205.0349449-.119693-.00007087-.00069685-.00011024-.00140945-.00011024-.00212598 0-.163268.0352126-.36615.132933-.366378.0976339-.00022835.132417.202646.132417.366378 0 .00057874-.00002362.00116142-.0000748.00174803h-.00000787c-.010063.114945.0292126.119941.0349213.120071.299264-.0434961.299236-.592138.298933-.627492-.00043701-.00441732.00058661-.00900394.00322835-.0129921l.00003543.00002362c.0827165-.124898.117587-.256047.11035-.365213-.0148425-.223906-.186972-.299768-.405209-.203339l-.00001575-.0000315-.0042126.00209843c0 .0829094.0106102.149339-.0501024.210055-.108004.108012-.29115.0296969-.29115-.120524v-.0895551c-.117535-.057874-.27674-.0724646-.359476.0458307-.0289488.0413898-.0459409.0948937-.0499567.155465-.0072126.10887.0274528.239614.109697.364209.00257087.00340551.00407087.00765748.00401969.012252h-.00007874c-.00005906.00420472-.00920472.584429.298913.629213z" fill="#ff5cf4"></path><path d="m.72365.122146c0 .114705.14.175114.222866.0922402.0469843-.0469882.0383858-.0992835.0383858-.164476-.0439764.0166299-.0872362.0249567-.13061.0249606v.00007874c-.0433031 0-.0865669-.00834646-.130642-.0250315v.0722283zm.0101063.120524c-.0628228-.0628228-.0496772-.134106-.0501063-.222496-.00007087-.0142874.0148346-.0245.0282874-.018378l-.00000787.0000748c.0484331.0220512.0954409.0330787.142362.0330787v.00007874c.0867677 0 .136197-.0350315.15061-.0350315.0110433 0 .02.00895669.02.02v.10215c0 .150213-.18313.228539-.291146.120524z" fill="#0023c4"></path></g><path d="m.23202.84426v.589142c0 .110862.0784606.204354.182571.227669-.0737441-.0490591-.122567-.132921-.122567-.227669v-.589142c0-.011811.00135039-.0234055.0039252-.0346063-.0084685-.0179803-.0160512-.0359606-.0227638-.0538701-.0256024.0216575-.0411654.0536732-.0411654.0884764z" fill="#cee1f2"></path><path d="m.274217.520516c-.0072126.10887.0274528.239614.109697.364209.00257087.00340551.00407087.00765748.00401969.012252h-.00007874c-.00005906.00411811-.00883858.561091.280524.625831-.213717-.141669-.220441-.564646-.220402-.620106-.0853661-.130996-.121264-.268972-.113598-.384689.00638189-.0963346.044248-.185083.117012-.236606-.0495236.0106929-.0943898.0367087-.127217.0836457-.0289488.0413898-.0459409.0948937-.0499567.155465z" fill="#cee1f2"></path><path d="m.72365.122146c0 .0734921.0574724.124697.120563.130205-.00355512-.00304331-.00703937-.00626772-.0104528-.0096811-.0512205-.0512205-.0519409-.108067-.0506929-.175224-.0196929-.00413386-.0394724-.00997638-.0594173-.0175276v.0722283z" fill="#cee1f2"></path></g></svg>